<svg xmlns="http://www.w3.org/2000/svg" xmlns:xlink="http://www.w3.org/1999/xlink" width="108" height="108" viewBox="0 0 108 108">
  <defs>
    <filter id="Path_904820" x="0" y="0" width="108" height="108" filterUnits="userSpaceOnUse">
      <feOffset dy="3" input="SourceAlpha"/>
      <feGaussianBlur stdDeviation="3" result="blur"/>
      <feFlood flood-opacity="0.161"/>
      <feComposite operator="in" in2="blur"/>
      <feComposite in="SourceGraphic"/>
    </filter>
  </defs>
  <g id="Group_1222172" data-name="Group 1222172" transform="translate(-197.999 -526.625)">
    <g id="Group_1221130" data-name="Group 1221130">
      <g id="Group_1220570" data-name="Group 1220570" transform="translate(1 -4452.375)">
        <g id="Group_1219944" data-name="Group 1219944" transform="translate(200 4985)">
          <g id="Group_1209015" data-name="Group 1209015" transform="translate(5.999 0)">
            <g id="Group_1207774" data-name="Group 1207774">
              <g id="Group_1206630" data-name="Group 1206630">
                <g id="Group_1185091" data-name="Group 1185091">
                  <g id="Group_1179560" data-name="Group 1179560">
                    <g id="Group_1173787" data-name="Group 1173787">
                      <g id="Group_1171910" data-name="Group 1171910">
                        <g id="Group_1167341" data-name="Group 1167341">
                          <g id="Group_1166792" data-name="Group 1166792">
                            <g transform="matrix(1, 0, 0, 1, -9, -6)" filter="url(#Path_904820)">
                              <g id="Path_904820-2" data-name="Path 904820" transform="translate(9 6)" fill="#e7f2f8">
                                <path d="M 44.99996948242188 88.50005340576172 C 39.12684631347656 88.50005340576172 33.43020629882812 87.35012817382812 28.06828117370605 85.08221435546875 C 22.88851928710938 82.89136505126953 18.23629379272461 79.754638671875 14.2408447265625 75.75918579101562 C 10.24540710449219 71.76374053955078 7.108694553375244 67.11151123046875 4.917831897735596 61.93173980712891 C 2.649931907653809 56.56980133056641 1.500007033348083 50.87314987182617 1.500007033348083 45.00002670288086 C 1.500007033348083 39.12690353393555 2.649931907653809 33.43025207519531 4.917831897735596 28.06831359863281 C 7.108694553375244 22.8885383605957 10.24540710449219 18.23631477355957 14.2408447265625 14.24086380004883 C 18.23629379272461 10.2454137802124 22.88851928710938 7.108689308166504 28.06828117370605 4.917839050292969 C 33.43020629882812 2.649926662445068 39.12684631347656 1.500001668930054 44.99996948242188 1.500001668930054 C 50.87309265136719 1.500001668930054 56.56973266601562 2.649926662445068 61.93165588378906 4.917839050292969 C 67.11143493652344 7.108689308166504 71.76364135742188 10.2454137802124 75.75909423828125 14.24086380004883 C 79.75454711914062 18.23631477355957 82.89125823974609 22.8885383605957 85.08212280273438 28.06831359863281 C 87.35002136230469 33.43025207519531 88.49994659423828 39.12690353393555 88.49994659423828 45.00002670288086 C 88.49994659423828 50.87314987182617 87.35002136230469 56.56980133056641 85.08212280273438 61.93173980712891 C 82.89125823974609 67.11151123046875 79.75454711914062 71.76374053955078 75.75909423828125 75.75918579101562 C 71.76364135742188 79.754638671875 67.11143493652344 82.89136505126953 61.93165588378906 85.08221435546875 C 56.56973266601562 87.35012817382812 50.87309265136719 88.50005340576172 44.99996948242188 88.50005340576172 Z" stroke="none"/>
                                <path d="M 44.99996948242188 3 C 39.32868194580078 3 33.82863998413086 4.110054016113281 28.65261077880859 6.299339294433594 C 23.65164184570312 8.414566040039062 19.15968322753906 11.44334411621094 15.301513671875 15.30152893066406 C 11.44332885742188 19.15969848632812 8.414566040039062 23.65167236328125 6.299324035644531 28.65264129638672 C 4.110054016113281 33.82868194580078 3 39.32873916625977 3 45.00002670288086 C 3 50.67131423950195 4.110054016113281 56.17137145996094 6.299324035644531 61.347412109375 C 8.414566040039062 66.34838104248047 11.44332885742188 70.84035491943359 15.301513671875 74.69852447509766 C 19.15968322753906 78.55670928955078 23.65164184570312 81.58547973632812 28.65261077880859 83.70071411132812 C 33.82863998413086 85.88999938964844 39.32868194580078 87.00005340576172 44.99996948242188 87.00005340576172 C 50.67125701904297 87.00005340576172 56.17129898071289 85.88999938964844 61.34732818603516 83.70071411132812 C 66.34829711914062 81.58547973632812 70.84025573730469 78.55670928955078 74.69842529296875 74.69852447509766 C 78.55661010742188 70.84035491943359 81.58537292480469 66.34838104248047 83.70061492919922 61.347412109375 C 85.88988494873047 56.17137145996094 86.99993896484375 50.67131423950195 86.99993896484375 45.00002670288086 C 86.99993896484375 39.32873916625977 85.88988494873047 33.82868194580078 83.70061492919922 28.65264129638672 C 81.58537292480469 23.65167236328125 78.55661010742188 19.15969848632812 74.69842529296875 15.30152893066406 C 70.84025573730469 11.44334411621094 66.34829711914062 8.414566040039062 61.34732818603516 6.299339294433594 C 56.17129898071289 4.110054016113281 50.67125701904297 3 44.99996948242188 3 M 44.99996948242188 0 C 69.85276794433594 0 89.99993896484375 20.14720153808594 89.99993896484375 45.00002670288086 C 89.99993896484375 69.85285949707031 69.85276794433594 90.00005340576172 44.99996948242188 90.00005340576172 C 20.14717102050781 90.00005340576172 0 69.85285949707031 0 45.00002670288086 C 0 20.14720153808594 20.14717102050781 0 44.99996948242188 0 Z" stroke="none" fill="#248abf"/>
                              </g>
                            </g>
                          </g>
                        </g>
                      </g>
                    </g>
                  </g>
                </g>
              </g>
            </g>
          </g>
        </g>
      </g>
      <g id="corte_1_" data-name="corte (1)" transform="translate(213.008 544.653)">
        <g id="Group_1221129" data-name="Group 1221129" transform="translate(1.148 1.144)">
          <path id="Path_1171444" data-name="Path 1171444" d="M118.507,21.841l-1.326-.349-1.624.349-28.363,17.3h56.587l1.6-.8Z" transform="translate(-75.058 -19.363)" fill="#b7aeb8"/>
          <path id="Path_1171445" data-name="Path 1171445" d="M0,0H7.915V37.579H0Z" transform="translate(17.546 66.502) rotate(180)" fill="#7b6c79"/>
          <path id="Path_1171446" data-name="Path 1171446" d="M0,0H7.915V37.579H0Z" transform="translate(49.833 66.502) rotate(180)" fill="#938493"/>
          <path id="Path_1171447" data-name="Path 1171447" d="M0,0H7.915V37.579H0Z" transform="translate(65.977 66.502) rotate(180)" fill="#938493"/>
          <path id="Path_1171448" data-name="Path 1171448" d="M0,0H7.915V37.579H0Z" transform="translate(33.689 66.502) rotate(180)" fill="#7b6c79"/>
          <path id="Path_1171449" data-name="Path 1171449" d="M110.108,159.532v6.142l.58.393.407.186.283.056h52.091a1.333,1.333,0,0,0,1.333-1.333v-5.443H110.108Z" transform="translate(-94.483 -136.381)" fill="#b7aeb8"/>
          <g id="Group_1221128" data-name="Group 1221128" transform="translate(5.368)">
            <path id="Path_1171450" data-name="Path 1171450" d="M53.145,164.977v-5.443H42.753v5.443a1.333,1.333,0,0,0,1.333,1.333H54.478A1.333,1.333,0,0,1,53.145,164.977Z" transform="translate(-42.753 -136.382)" fill="#938493"/>
            <path id="Path_1171451" data-name="Path 1171451" d="M77.262,10.776a5.554,5.554,0,0,1,3.571-.785l-2.69-1.651a5.552,5.552,0,0,0-5.831,0L42.753,26.482l1.526.8h6.082Z" transform="translate(-42.753 -7.512)" fill="#938493"/>
            <path id="Path_1171452" data-name="Path 1171452" d="M213.989,85.8l-.841-.239-1.827.408-11.8,7.481h24.519l1.1-.8Z" transform="translate(-175.644 -73.677)" fill="#938493"/>
          </g>
          <path id="Path_1171453" data-name="Path 1171453" d="M164.225,73.263a5.564,5.564,0,0,1,2.9-.826l-2.954-1.813a5.552,5.552,0,0,0-5.831,0L144.23,79.282l.654.8h8.224Z" transform="translate(-123.409 -60.312)" fill="#7b6c79"/>
          <path id="Path_1171454" data-name="Path 1171454" d="M139.307,132.082H76.234l-.293.062-.666.7v3.817l.39.6.69.3h62.952a1.333,1.333,0,0,0,1.333-1.333v-2.812A1.333,1.333,0,0,0,139.307,132.082Z" transform="translate(-64.955 -113.112)" fill="#ccc6ce"/>
          <path id="Path_1171455" data-name="Path 1171455" d="M17.9,136.227v-2.812a1.333,1.333,0,0,1,1.333-1.333H8.838A1.333,1.333,0,0,0,7.5,133.415v2.812a1.333,1.333,0,0,0,1.333,1.333H19.23A1.333,1.333,0,0,1,17.9,136.227Z" transform="translate(-7.505 -113.112)" fill="#b7aeb8"/>
          <path id="Path_1171456" data-name="Path 1171456" d="M110.108,439.335v-6.142l.58-.393.407-.186.283-.056h52.091a1.333,1.333,0,0,1,1.333,1.333v5.444H110.108Z" transform="translate(-94.483 -367.829)" fill="#b7aeb8"/>
          <path id="Path_1171457" data-name="Path 1171457" d="M53.145,433.89v5.443H42.753V433.89a1.333,1.333,0,0,1,1.333-1.333H54.478A1.333,1.333,0,0,0,53.145,433.89Z" transform="translate(-37.385 -367.828)" fill="#938493"/>
          <path id="Path_1171458" data-name="Path 1171458" d="M139.307,474.012H76.234l-.293-.062-.666-.7v-3.817l.39-.6.69-.3h62.952a1.333,1.333,0,0,1,1.333,1.333v2.812A1.333,1.333,0,0,1,139.307,474.012Z" transform="translate(-64.955 -398.326)" fill="#ccc6ce"/>
          <path id="Path_1171459" data-name="Path 1171459" d="M17.9,469.865v2.812a1.333,1.333,0,0,0,1.333,1.333H8.838A1.333,1.333,0,0,1,7.5,472.677v-2.812a1.333,1.333,0,0,1,1.333-1.333H19.23A1.333,1.333,0,0,0,17.9,469.865Z" transform="translate(-7.505 -398.325)" fill="#b7aeb8"/>
        </g>
        <path id="Path_1171460" data-name="Path 1171460" d="M2.481,77.973H36.326a1.142,1.142,0,1,0,0-2.284H2.481A.191.191,0,0,1,2.29,75.5V72.685a.191.191,0,0,1,.191-.191H75.5a.191.191,0,0,1,.191.191V75.5a.191.191,0,0,1-.191.191H41.656a1.142,1.142,0,1,0,0,2.284H75.5A2.478,2.478,0,0,0,77.976,75.5V72.685A2.478,2.478,0,0,0,75.5,70.21H72.608v-3a2.478,2.478,0,0,0-2.475-2.475H68.267V51.138a1.142,1.142,0,0,0-2.284,0V64.731H60.351V32.214h5.631V45.808a1.142,1.142,0,0,0,2.284,0V32.214h1.866a2.478,2.478,0,0,0,2.475-2.475v-3H75.5a2.478,2.478,0,0,0,2.475-2.475V21.448A2.478,2.478,0,0,0,75.5,18.973H71.789L42.5,1a6.685,6.685,0,0,0-7.026,0L6.193,18.973H2.481A2.478,2.478,0,0,0,.006,21.448V24.26a2.478,2.478,0,0,0,2.475,2.475H5.374v3a2.478,2.478,0,0,0,2.475,2.475H9.636V64.731H7.849a2.478,2.478,0,0,0-2.475,2.475v3H2.481A2.478,2.478,0,0,0,.006,72.685V75.5a2.478,2.478,0,0,0,2.475,2.475ZM36.673,2.945a4.411,4.411,0,0,1,4.635,0L67.422,18.973H56.335L42.5,10.483a6.684,6.684,0,0,0-7.026,0l-13.831,8.49H10.56Zm15.3,16.028H26.014L36.673,12.43h0a4.411,4.411,0,0,1,4.636,0ZM2.481,24.451a.191.191,0,0,1-.191-.191V21.448a.191.191,0,0,1,.191-.191H75.5a.191.191,0,0,1,.191.191V24.26a.191.191,0,0,1-.191.191ZM7.849,29.93a.191.191,0,0,1-.191-.191v-3H70.324v3a.191.191,0,0,1-.191.191H7.849Zm50.218,2.284V64.731H52.123V32.214Zm-8.228,0V64.731H44.208V32.214Zm-7.915,0V64.731H35.98V32.214Zm-8.228,0V64.731H28.064V32.214Zm-7.915,0V64.731H19.836V32.214Zm-8.228,0V64.731H11.92V32.214ZM7.658,67.206a.191.191,0,0,1,.191-.191H70.133a.191.191,0,0,1,.191.191v3H7.658Z"/>
      </g>
    </g>
  </g>
</svg>
