<svg xmlns="http://www.w3.org/2000/svg" xmlns:xlink="http://www.w3.org/1999/xlink" width="93.934" height="93.934" viewBox="0 0 93.934 93.934">
  <defs>
    <filter id="Path_978624" x="0" y="0" width="93.934" height="93.934" filterUnits="userSpaceOnUse">
      <feOffset dy="3" input="SourceAlpha"/>
      <feGaussianBlur stdDeviation="3" result="blur"/>
      <feFlood flood-opacity="0.161"/>
      <feComposite operator="in" in2="blur"/>
      <feComposite in="SourceGraphic"/>
    </filter>
  </defs>
  <g id="Group_1222237" data-name="Group 1222237" transform="translate(-609 -3399.257)">
    <g id="Group_1222166" data-name="Group 1222166" transform="translate(0 60.257)">
      <g id="Group_1220899" data-name="Group 1220899" transform="translate(2.459 -2458.533)">
        <g id="Group_1219948" data-name="Group 1219948" transform="translate(615.541 5803.533)">
          <g id="Group_1208655" data-name="Group 1208655">
            <g id="Group_1208068" data-name="Group 1208068">
              <g id="Group_1144123" data-name="Group 1144123">
                <g transform="matrix(1, 0, 0, 1, -9, -6)" filter="url(#Path_978624)">
                  <g id="Path_978624-2" data-name="Path 978624" transform="translate(9 6)" fill="#f1ede8">
                    <path d="M 37.966796875 74.43359375 C 33.04315185546875 74.43359375 28.26757431030273 73.46962738037109 23.77274131774902 71.56847381591797 C 19.43047523498535 69.73184967041016 15.53040790557861 67.10224914550781 12.18087482452393 63.75271987915039 C 8.831341743469238 60.4031867980957 6.201741218566895 56.50312042236328 4.365118980407715 52.16086196899414 C 2.463963508605957 47.66601943969727 1.499996900558472 42.89044189453125 1.499996900558472 37.966796875 C 1.499996900558472 33.04315185546875 2.463963508605957 28.26757431030273 4.365118980407715 23.77274131774902 C 6.201741218566895 19.43047523498535 8.831341743469238 15.53040790557861 12.18087482452393 12.18087482452393 C 15.53040790557861 8.831341743469238 19.43047523498535 6.201741218566895 23.77274131774902 4.365118980407715 C 28.26757431030273 2.463963508605957 33.04315185546875 1.499996900558472 37.966796875 1.499996900558472 C 42.89044189453125 1.499996900558472 47.66601943969727 2.463963508605957 52.16086196899414 4.365118980407715 C 56.50312042236328 6.201741218566895 60.4031867980957 8.831341743469238 63.75271987915039 12.18087482452393 C 67.10224914550781 15.53040790557861 69.73184967041016 19.43047523498535 71.56847381591797 23.77274131774902 C 73.46962738037109 28.26757431030273 74.43359375 33.04315185546875 74.43359375 37.966796875 C 74.43359375 42.89044189453125 73.46962738037109 47.66601943969727 71.56847381591797 52.16086196899414 C 69.73184967041016 56.50313186645508 67.10224914550781 60.4031867980957 63.75271987915039 63.75271987915039 C 60.4031867980957 67.10224914550781 56.50313186645508 69.73184967041016 52.16086196899414 71.56847381591797 C 47.66601943969727 73.46962738037109 42.89044189453125 74.43359375 37.966796875 74.43359375 Z" stroke="none"/>
                    <path d="M 37.966796875 3 C 33.2449836730957 3 28.66600799560547 3.924095153808594 24.35705947875977 5.746635437011719 C 20.19359588623047 7.507621765136719 16.45379638671875 10.02927398681641 13.24153518676758 13.24153518676758 C 10.02927398681641 16.45379638671875 7.507621765136719 20.19359588623047 5.746635437011719 24.35705947875977 C 3.924095153808594 28.66600799560547 3 33.2449836730957 3 37.966796875 C 3 42.6886100769043 3.924095153808594 47.26758575439453 5.746635437011719 51.57653427124023 C 7.507621765136719 55.73999786376953 10.02927398681641 59.47979736328125 13.24153518676758 62.69205856323242 C 16.45379638671875 65.90431976318359 20.19359588623047 68.42597198486328 24.35705947875977 70.18695831298828 C 28.66600799560547 72.00949859619141 33.2449836730957 72.93359375 37.966796875 72.93359375 C 42.6886100769043 72.93359375 47.26758575439453 72.00949859619141 51.57653427124023 70.18695831298828 C 55.73999786376953 68.42597198486328 59.47979736328125 65.90431976318359 62.69205856323242 62.69205856323242 C 65.90431976318359 59.47979736328125 68.42597198486328 55.73999786376953 70.18695831298828 51.57653427124023 C 72.00949859619141 47.26758575439453 72.93359375 42.6886100769043 72.93359375 37.966796875 C 72.93359375 33.2449836730957 72.00949859619141 28.66600799560547 70.18695831298828 24.35705947875977 C 68.42597198486328 20.19359588623047 65.90431976318359 16.45379638671875 62.69205856323242 13.24153518676758 C 59.47979736328125 10.02927398681641 55.73999786376953 7.507621765136719 51.57653427124023 5.746635437011719 C 47.26758575439453 3.924095153808594 42.6886100769043 3 37.966796875 3 M 37.966796875 0 C 58.93528366088867 0 75.93359375 16.99831008911133 75.93359375 37.966796875 C 75.93359375 58.93528366088867 58.93528366088867 75.93359375 37.966796875 75.93359375 C 16.99831008911133 75.93359375 0 58.93528366088867 0 37.966796875 C 0 16.99831008911133 16.99831008911133 0 37.966796875 0 Z" stroke="none" fill="#665b4e"/>
                  </g>
                </g>
              </g>
            </g>
          </g>
        </g>
      </g>
      <g id="citacion" transform="translate(628.934 3358.935)">
        <g id="Group_1222164" data-name="Group 1222164">
          <g id="Group_1222153" data-name="Group 1222153">
            <path id="Path_1173979" data-name="Path 1173979" d="M39.51,13a19.242,19.242,0,0,0,6.91,10.77A5.794,5.794,0,0,0,50,25a5.551,5.551,0,0,0,1-.09V61H1V5H39V8.6a18.977,18.977,0,0,0,.51,4.4Z" fill="#ffeaa7"/>
          </g>
          <g id="Group_1222154" data-name="Group 1222154">
            <path id="Path_1173980" data-name="Path 1173980" d="M12,9a7,7,0,1,1-7,7,6.995,6.995,0,0,1,7-7Z" fill="#aab2bd"/>
          </g>
          <g id="Group_1222155" data-name="Group 1222155">
            <circle id="Ellipse_14581" data-name="Ellipse 14581" cx="3" cy="3" r="3" transform="translate(9 12.998)" fill="#ccd1d9"/>
          </g>
          <g id="Group_1222156" data-name="Group 1222156">
            <path id="Path_1173981" data-name="Path 1173981" d="M61,5V8.6a19.277,19.277,0,0,1-7.42,15.17A5.729,5.729,0,0,1,51,24.908,5.551,5.551,0,0,1,50,25a5.794,5.794,0,0,1-3.58-1.23A19.242,19.242,0,0,1,39.51,13,18.977,18.977,0,0,1,39,8.6V5l9.07-3.63a5.219,5.219,0,0,1,3.86,0Z" fill="#aab2bd"/>
          </g>
          <g id="Group_1222157" data-name="Group 1222157">
            <path id="Path_1173982" data-name="Path 1173982" d="M50,5a1.117,1.117,0,0,1,.44.09L57,7.708V8.6a15.1,15.1,0,0,1-5.88,12.01,1.88,1.88,0,0,1-2.24,0A15.1,15.1,0,0,1,43,8.6v-.89l6.56-2.62A1.117,1.117,0,0,1,50,5Z" fill="#ccd1d9"/>
          </g>
          <g id="Group_1222158" data-name="Group 1222158">
            <path id="Path_1173983" data-name="Path 1173983" d="M24,35h4V53H24Z" fill="#cf9e76"/>
          </g>
          <g id="Group_1222159" data-name="Group 1222159">
            <path id="Path_1173984" data-name="Path 1173984" d="M28,26v5H24V26a1,1,0,0,1,1-1h2A1,1,0,0,1,28,26Z" fill="#cf9e76"/>
          </g>
          <g id="Group_1222160" data-name="Group 1222160">
            <path id="Path_1173985" data-name="Path 1173985" d="M43,32v2a1,1,0,0,1-1,1H10a1,1,0,0,1-1-1V32a1,1,0,0,1,1-1H42a1,1,0,0,1,1,1Z" fill="#cf9e76"/>
          </g>
          <g id="Group_1222161" data-name="Group 1222161">
            <path id="Path_1173986" data-name="Path 1173986" d="M36,54v2a1,1,0,0,1-1,1H17a1,1,0,0,1-1-1V54a1,1,0,0,1,1-1H35A1,1,0,0,1,36,54Z" fill="#b27946"/>
          </g>
          <g id="Group_1222162" data-name="Group 1222162">
            <path id="Path_1173987" data-name="Path 1173987" d="M32,45H42a3.995,3.995,0,0,1-4,4H36A4,4,0,0,1,32,45Z" fill="#d3a06c"/>
          </g>
          <g id="Group_1222163" data-name="Group 1222163">
            <path id="Path_1173988" data-name="Path 1173988" d="M18.83,47.828A4.025,4.025,0,0,1,16,49H14a4,4,0,0,1-4-4H20a4.025,4.025,0,0,1-1.17,2.83Z" fill="#d3a06c"/>
          </g>
        </g>
        <g id="Group_1222165" data-name="Group 1222165">
          <path id="Path_1173989" data-name="Path 1173989" d="M42,30H29V26a2,2,0,0,0-2-2H25a2,2,0,0,0-2,2v4H10a2,2,0,0,0-2,2v2a2,2,0,0,0,2,2h2.523L9,44.806V45a5.006,5.006,0,0,0,5,5h2a5.006,5.006,0,0,0,5-5v-.192L17.477,36H23V52H17a2,2,0,0,0-2,2v2a2,2,0,0,0,2,2H35a2,2,0,0,0,2-2V54a2,2,0,0,0-2-2H29V36h5.523L31,44.806V45a5.006,5.006,0,0,0,5,5h2a5.006,5.006,0,0,0,5-5v-.192L39.477,36H42a2,2,0,0,0,2-2V32a2,2,0,0,0-2-2ZM25,26h2v4H25ZM16,48H14a3,3,0,0,1-2.815-2h7.629A2.993,2.993,0,0,1,16,48Zm2.523-4H11.477l3.2-8h.645ZM35,56H17V54H35Zm-8-4H25V36h2Zm11-4H36a3,3,0,0,1-2.815-2h7.629A2.993,2.993,0,0,1,38,48Zm2.523-4H33.477l3.2-8h.645ZM10,34V32H42v2Z"/>
          <path id="Path_1173990" data-name="Path 1173990" d="M20,16a8,8,0,1,0-8,8,8.009,8.009,0,0,0,8-8ZM6,16a6,6,0,1,1,6,6,6.006,6.006,0,0,1-6-6Z"/>
          <path id="Path_1173991" data-name="Path 1173991" d="M16,16a4,4,0,1,0-4,4,4,4,0,0,0,4-4Zm-6,0a2,2,0,1,1,2,2,2,2,0,0,1-2-2Z"/>
          <path id="Path_1173992" data-name="Path 1173992" d="M22,8h4v2H22Z"/>
          <path id="Path_1173993" data-name="Path 1173993" d="M22,16h6v2H22Z"/>
          <path id="Path_1173994" data-name="Path 1173994" d="M30,16h2v2H30Z"/>
          <path id="Path_1173995" data-name="Path 1173995" d="M22,20H40v2H22Z"/>
          <path id="Path_1173996" data-name="Path 1173996" d="M52.3.442a6.213,6.213,0,0,0-4.6,0L38.807,4H0V62H52V25.682a6.8,6.8,0,0,0,2.192-1.122A20.094,20.094,0,0,0,62,8.6V4.321ZM50,60H2V6H38V8H28v2H38.053c.046.674.121,1.342.232,2H22v2H38.731a20.031,20.031,0,0,0,.666,2H34v2h6.311a20.2,20.2,0,0,0,5.5,6.561A6.862,6.862,0,0,0,50,26ZM60,8.6a18.1,18.1,0,0,1-7.036,14.385,4.958,4.958,0,0,1-5.929,0A18.1,18.1,0,0,1,40,8.6V5.675L48.443,2.3a4.215,4.215,0,0,1,3.114,0L60,5.675Z"/>
          <path id="Path_1173997" data-name="Path 1173997" d="M49.186,4.155,42,7.029V8.6A16.116,16.116,0,0,0,48.263,21.4a2.862,2.862,0,0,0,3.474,0A16.118,16.118,0,0,0,58,8.6V7.029L50.814,4.155a2.182,2.182,0,0,0-1.628,0ZM56,8.6a14.108,14.108,0,0,1-5,10.8V13H49v6.4A14.106,14.106,0,0,1,44,8.6V8.383l5-2V11h2V6.384l5,2Z"/>
        </g>
      </g>
    </g>
  </g>
</svg>
