<svg xmlns="http://www.w3.org/2000/svg" xmlns:xlink="http://www.w3.org/1999/xlink" width="93.934" height="93.934" viewBox="0 0 93.934 93.934">
  <defs>
    <filter id="Path_978624" x="0" y="0" width="93.934" height="93.934" filterUnits="userSpaceOnUse">
      <feOffset dy="3" input="SourceAlpha"/>
      <feGaussianBlur stdDeviation="3" result="blur"/>
      <feFlood flood-opacity="0.161"/>
      <feComposite operator="in" in2="blur"/>
      <feComposite in="SourceGraphic"/>
    </filter>
  </defs>
  <g id="Group_1222235" data-name="Group 1222235" transform="translate(-609 -3132.29)">
    <g id="Group_1222152" data-name="Group 1222152" transform="translate(0 60.257)">
      <g id="Group_1220897" data-name="Group 1220897" transform="translate(2.459 -2427.083)">
        <g id="Group_1219946" data-name="Group 1219946" transform="translate(615.541 5505.116)">
          <g id="Group_1208655" data-name="Group 1208655">
            <g id="Group_1208068" data-name="Group 1208068">
              <g id="Group_1144123" data-name="Group 1144123">
                <g transform="matrix(1, 0, 0, 1, -9, -6)" filter="url(#Path_978624)">
                  <g id="Path_978624-2" data-name="Path 978624" transform="translate(9 6)" fill="#f1ede8">
                    <path d="M 37.966796875 74.43359375 C 33.04315185546875 74.43359375 28.26757431030273 73.46962738037109 23.77274131774902 71.56847381591797 C 19.43047523498535 69.73184967041016 15.53040790557861 67.10224914550781 12.18087482452393 63.75271987915039 C 8.831341743469238 60.4031867980957 6.201741218566895 56.50312042236328 4.365118980407715 52.16086196899414 C 2.463963508605957 47.66601943969727 1.499996900558472 42.89044189453125 1.499996900558472 37.966796875 C 1.499996900558472 33.04315185546875 2.463963508605957 28.26757431030273 4.365118980407715 23.77274131774902 C 6.201741218566895 19.43047523498535 8.831341743469238 15.53040790557861 12.18087482452393 12.18087482452393 C 15.53040790557861 8.831341743469238 19.43047523498535 6.201741218566895 23.77274131774902 4.365118980407715 C 28.26757431030273 2.463963508605957 33.04315185546875 1.499996900558472 37.966796875 1.499996900558472 C 42.89044189453125 1.499996900558472 47.66601943969727 2.463963508605957 52.16086196899414 4.365118980407715 C 56.50312042236328 6.201741218566895 60.4031867980957 8.831341743469238 63.75271987915039 12.18087482452393 C 67.10224914550781 15.53040790557861 69.73184967041016 19.43047523498535 71.56847381591797 23.77274131774902 C 73.46962738037109 28.26757431030273 74.43359375 33.04315185546875 74.43359375 37.966796875 C 74.43359375 42.89044189453125 73.46962738037109 47.66601943969727 71.56847381591797 52.16086196899414 C 69.73184967041016 56.50313186645508 67.10224914550781 60.4031867980957 63.75271987915039 63.75271987915039 C 60.4031867980957 67.10224914550781 56.50313186645508 69.73184967041016 52.16086196899414 71.56847381591797 C 47.66601943969727 73.46962738037109 42.89044189453125 74.43359375 37.966796875 74.43359375 Z" stroke="none"/>
                    <path d="M 37.966796875 3 C 33.2449836730957 3 28.66600799560547 3.924095153808594 24.35705947875977 5.746635437011719 C 20.19359588623047 7.507621765136719 16.45379638671875 10.02927398681641 13.24153518676758 13.24153518676758 C 10.02927398681641 16.45379638671875 7.507621765136719 20.19359588623047 5.746635437011719 24.35705947875977 C 3.924095153808594 28.66600799560547 3 33.2449836730957 3 37.966796875 C 3 42.6886100769043 3.924095153808594 47.26758575439453 5.746635437011719 51.57653427124023 C 7.507621765136719 55.73999786376953 10.02927398681641 59.47979736328125 13.24153518676758 62.69205856323242 C 16.45379638671875 65.90431976318359 20.19359588623047 68.42597198486328 24.35705947875977 70.18695831298828 C 28.66600799560547 72.00949859619141 33.2449836730957 72.93359375 37.966796875 72.93359375 C 42.6886100769043 72.93359375 47.26758575439453 72.00949859619141 51.57653427124023 70.18695831298828 C 55.73999786376953 68.42597198486328 59.47979736328125 65.90431976318359 62.69205856323242 62.69205856323242 C 65.90431976318359 59.47979736328125 68.42597198486328 55.73999786376953 70.18695831298828 51.57653427124023 C 72.00949859619141 47.26758575439453 72.93359375 42.6886100769043 72.93359375 37.966796875 C 72.93359375 33.2449836730957 72.00949859619141 28.66600799560547 70.18695831298828 24.35705947875977 C 68.42597198486328 20.19359588623047 65.90431976318359 16.45379638671875 62.69205856323242 13.24153518676758 C 59.47979736328125 10.02927398681641 55.73999786376953 7.507621765136719 51.57653427124023 5.746635437011719 C 47.26758575439453 3.924095153808594 42.6886100769043 3 37.966796875 3 M 37.966796875 0 C 58.93528366088867 0 75.93359375 16.99831008911133 75.93359375 37.966796875 C 75.93359375 58.93528366088867 58.93528366088867 75.93359375 37.966796875 75.93359375 C 16.99831008911133 75.93359375 0 58.93528366088867 0 37.966796875 C 0 16.99831008911133 16.99831008911133 0 37.966796875 0 Z" stroke="none" fill="#665b4e"/>
                  </g>
                </g>
              </g>
            </g>
          </g>
        </g>
      </g>
      <g id="abogado_3_" data-name="abogado (3)" transform="translate(618.205 3078.033)">
        <g id="Group_1222150" data-name="Group 1222150" transform="translate(7.814 1.112)">
          <path id="Path_1173949" data-name="Path 1173949" d="M145.436,11.046H140.7l-6.674,6.448-2.793,5.413V55.09h21.583l.519-4.216L158.2,43V27.491a16.977,16.977,0,0,0-12.765-16.445Z" transform="translate(-113.877 -10.52)" fill="#e79380"/>
          <path id="Path_1173950" data-name="Path 1173950" d="M92.584,24.684a17.194,17.194,0,0,1,12.8-16.658A16.984,16.984,0,0,0,84.2,24.684V51.216l.548.854h8.379l-.548-.854Z" transform="translate(-73.823 -7.501)" fill="#df7e66"/>
          <path id="Path_1173951" data-name="Path 1173951" d="M60.767,314.92c.114-.383-3.644-19.624-3.644-19.624l.115-6.267L50.613,291.6l-3.248,3.19-.767,2.88v21.727l.644,1.224.315.367h13.21l.547-.59v-5.374c-.361-.025-.559-.058-.547-.1Z" transform="translate(-41.793 -247.276)" fill="#7b6c79"/>
          <path id="Path_1173952" data-name="Path 1173952" d="M19.442,332.365V312.6a10.192,10.192,0,0,1,4.369-8.32l-3.819,1.481a9.914,9.914,0,0,0-5.79,8.98v17.3a1.929,1.929,0,0,0,1.929,1.929h4.147a1.969,1.969,0,0,1-.836-1.611Z" transform="translate(-14.202 -260.267)" fill="#665e68"/>
          <path id="Path_1173953" data-name="Path 1173953" d="M265.569,320.934a1.383,1.383,0,0,1-1.383-1.383V317.2a1.383,1.383,0,0,1,1.383-1.383h1.343a4.27,4.27,0,0,1,2.166-4.5,9.176,9.176,0,0,0-3.8-3.042l-1.366-.529a3.234,3.234,0,0,1-1.259.253H257.4a3.231,3.231,0,0,1-2.095-.768v.117l2.1,4.6L252.1,330.423l-.529.012v5.056l.529,1H269.14a1.929,1.929,0,0,0,1.929-1.929V320.934Z" transform="translate(-216.364 -262.779)" fill="#7b6c79"/>
          <path id="Path_1173954" data-name="Path 1173954" d="M201.172,320.69h-6.105v27.26h8.909V323.93Z" transform="translate(-168.243 -274.242)" fill="#b5dcff"/>
          <path id="Path_1173955" data-name="Path 1173955" d="M150.513,320.69H144.72l-2.585,3.24v24.02h8.378Z" transform="translate(-123.162 -274.242)" fill="#8bcaff"/>
          <path id="Path_1173956" data-name="Path 1173956" d="M203.426,246.71l-1.226-.475a1.07,1.07,0,0,1-.684-1l0-3.587-.726-.462h-5.719v12.853h2.539l1.218-.494,4.944-5.7Z" transform="translate(-168.243 -206.533)" fill="#ffcebe"/>
          <path id="Path_1173957" data-name="Path 1173957" d="M153.652,241.19h-5.189l-.736.483v3.559c0,.819-.731,1.016-1.042,1.137l-.864.335.16,1.95,4.622,5.116,1.041.272h2.008V241.19Z" transform="translate(-126.301 -206.532)" fill="#ffb1a0"/>
          <path id="Path_1173958" data-name="Path 1173958" d="M105.3,279.8l-3.529,1.368-2.3,4.774a5.891,5.891,0,0,0-.225,4.584l6.055,16.533V279.8Z" transform="translate(-86.324 -239.419)" fill="#938493"/>
          <path id="Path_1173959" data-name="Path 1173959" d="M260.964,285.976l-.631-1.31-3.141-4.031-2.057-.8v27.254l6.055-16.533A5.89,5.89,0,0,0,260.964,285.976Z" transform="translate(-219.402 -239.449)" fill="#938493"/>
          <path id="Path_1173960" data-name="Path 1173960" d="M97.375,136.985v.72l1.808,1.73H102.4v-3.616l-.531-.675h-.006a5.136,5.136,0,0,0-3.978,1.166h0A4.075,4.075,0,0,0,97.375,136.985Z" transform="translate(-85.04 -116.173)" fill="#ffcebe"/>
          <path id="Path_1173961" data-name="Path 1173961" d="M269.239,139.407l1.338-.978.224-1.472a4.1,4.1,0,0,0-.508-.677,4.869,4.869,0,0,0-3.977-1.164h-.006v.007l-.576.742v3.542h3.5Z" transform="translate(-228.431 -116.144)" fill="#ffcebe"/>
          <path id="Path_1173962" data-name="Path 1173962" d="M94.2,147.836a3.831,3.831,0,0,0-.552,1.979,4.246,4.246,0,0,0,5.049,3.994l.525-.383v-3.957l-.525.383A4.414,4.414,0,0,1,94.2,147.836Z" transform="translate(-81.867 -127.023)" fill="#ffb1a0"/>
          <path id="Path_1173963" data-name="Path 1173963" d="M266.3,149.85l-.567-.424v3.957l.567.424a4.247,4.247,0,0,0,5.052-3.993,3.831,3.831,0,0,0-.552-1.979,4.415,4.415,0,0,1-4.5,2.015Z" transform="translate(-228.43 -127.022)" fill="#ffb1a0"/>
          <path id="Path_1173964" data-name="Path 1173964" d="M358.861,331.285a4.271,4.271,0,0,0-4.207,5.022l.561.334h7.119l.734-.334a4.27,4.27,0,0,0-4.207-5.022Z" transform="translate(-304.106 -283.265)" fill="#eab900"/>
          <path id="Path_1173965" data-name="Path 1173965" d="M380.221,365.146h-5.975l-.391.118-.568.482-.136.358v3.168l.371.663.751.324h5.949a1.383,1.383,0,0,0,1.383-1.383v-2.347A1.383,1.383,0,0,0,380.221,365.146Z" transform="translate(-319.916 -312.104)" fill="#ffe02f"/>
          <path id="Path_1173966" data-name="Path 1173966" d="M342.234,368.876v-2.347a1.383,1.383,0,0,1,1.383-1.383h-5.58a1.383,1.383,0,0,0-1.383,1.383v2.347a1.383,1.383,0,0,0,1.383,1.383h5.58A1.383,1.383,0,0,1,342.234,368.876Z" transform="translate(-288.832 -312.104)" fill="#fbc700"/>
          <path id="Path_1173967" data-name="Path 1173967" d="M462.438,279.6h-5.317c-.151.134-.3.273-.3.273v2.583l.735,1.137.884.581,1.009.292h.2a3.245,3.245,0,0,0,3.245-3.245v-1.164A.457.457,0,0,0,462.438,279.6Z" transform="translate(-391.175 -239.244)" fill="#ffe02f"/>
          <path id="Path_1173968" data-name="Path 1173968" d="M424.395,281.22v-1.164a.457.457,0,0,1,.457-.457h-5.795a.457.457,0,0,0-.457.457v1.164a3.245,3.245,0,0,0,3.245,3.245H427.1c.091,0,.18,0,.269-.012A3.244,3.244,0,0,1,424.395,281.22Z" transform="translate(-358.625 -239.245)" fill="#fbc700"/>
          <g id="Group_1222149" data-name="Group 1222149" transform="translate(37.79 40.354)">
            <path id="Path_1173969" data-name="Path 1173969" d="M312.844,279.6h-5.317c-.151.134-.3.273-.3.273v2.583l.735,1.137.884.581,1.009.292h.2a3.245,3.245,0,0,0,3.245-3.245v-1.164A.457.457,0,0,0,312.844,279.6Z" transform="translate(-301.556 -279.598)" fill="#ffe02f"/>
            <path id="Path_1173970" data-name="Path 1173970" d="M274.8,281.22v-1.164a.457.457,0,0,1,.457-.457h-5.795a.457.457,0,0,0-.457.457v1.164a3.245,3.245,0,0,0,3.245,3.245h5.256c.091,0,.18,0,.269-.012A3.244,3.244,0,0,1,274.8,281.22Z" transform="translate(-269.007 -279.599)" fill="#fbc700"/>
          </g>
          <path id="Path_1173971" data-name="Path 1173971" d="M384.208,188.823h-.42l-1.224,1.661-.371,1.252a10.715,10.715,0,0,0,.179,1.714,7.217,7.217,0,0,1,.6.779l1.236.421a3.443,3.443,0,0,0,0-5.827Z" transform="translate(-327.617 -161.931)" fill="#ffe02f"/>
          <path id="Path_1173972" data-name="Path 1173972" d="M363.852,188.691a3.441,3.441,0,0,1,1.609-2.914,3.444,3.444,0,1,0,0,5.827A3.44,3.44,0,0,1,363.852,188.691Z" transform="translate(-308.87 -158.886)" fill="#fbc700"/>
          <path id="Path_1173973" data-name="Path 1173973" d="M142.134,287.891a7.672,7.672,0,0,0,5.991-1.42,1.213,1.213,0,0,0-.074-1.84,21.111,21.111,0,0,1-5.37-6.256l-.547.212v9.3Z" transform="translate(-123.161 -238.202)" fill="#dbedff"/>
          <path id="Path_1173974" data-name="Path 1173974" d="M218.506,278.618l-.549-.213a21.112,21.112,0,0,1-5.368,6.251,1.213,1.213,0,0,0-.074,1.84,7.672,7.672,0,0,0,5.991,1.42v-9.3Z" transform="translate(-182.774 -238.228)" fill="#dbedff"/>
          <path id="Path_1173975" data-name="Path 1173975" d="M180.113,107.144c-.33,0-.355-.008-2.183-.163a6.11,6.11,0,0,1-5.315-4.623.177.177,0,0,0-.344,0,6.176,6.176,0,0,1-3.745,4.262l-.644.812v9.838l1.98,4.152,1.977,2.175,3.439,1.123a10.54,10.54,0,0,0,7.691-10.114v-7.461Z" transform="translate(-145.09 -88.172)" fill="#ffdecf"/>
          <path id="Path_1173976" data-name="Path 1173976" d="M134.262,139.971v-8.088a5.721,5.721,0,0,1-1.628.372c.148-.011-1.871.153-2.23.153h-2.752v7.563a10.386,10.386,0,0,0,10.635,10.377,10.149,10.149,0,0,0,3.218-.513A10.309,10.309,0,0,1,134.262,139.971Z" transform="translate(-110.826 -113.436)" fill="#ffcebe"/>
        </g>
        <g id="Group_1222151" data-name="Group 1222151" transform="translate(6.702)">
          <path id="Path_1173977" data-name="Path 1173977" d="M192.238,352.021a1.112,1.112,0,0,0-1.112,1.112v16.116a1.112,1.112,0,0,0,2.225,0V353.133A1.112,1.112,0,0,0,192.238,352.021Z" transform="translate(-163.774 -299.814)"/>
          <path id="Path_1173978" data-name="Path 1173978" d="M79.078,40.354h-.023l-3.123-5.538a1.112,1.112,0,0,0-.675-2.079,14.8,14.8,0,0,1-1.911.124,15.626,15.626,0,0,1-6.261-1.344,4.556,4.556,0,1,0-9.031,0,15.934,15.934,0,0,1-4.8,1.27v-14.7A18.071,18.071,0,0,0,35.168,0h-.136A18.238,18.238,0,0,0,17.084,18.3v25.77l-3.882,1.5-.022.009A10.963,10.963,0,0,0,6.7,55.588v17.3a3.045,3.045,0,0,0,3.042,3.042H32.572a1.112,1.112,0,1,0,0-2.225H27.9V52.036c2.67.07,5.3-1.176,6.015-2.3h2.5c.693,1.092,3.294,2.373,6.015,2.3V73.709H37.763a1.112,1.112,0,1,0,0,2.225H60.59a3.045,3.045,0,0,0,3.042-3.042V68.757a1.112,1.112,0,1,0-2.225,0v4.135a.818.818,0,0,1-.817.817H54.979V62.367a1.112,1.112,0,1,0-2.225,0V73.709h-8.1V68.954l5.987-16.348a7.044,7.044,0,0,0-.138-5.162h3.6a4.5,4.5,0,0,0,1.242-.18,8.319,8.319,0,0,1,3.563,2.189A5.39,5.39,0,0,0,57.2,53.042a2.507,2.507,0,0,0-2.672,2.5v2.347a2.5,2.5,0,0,0,2.5,2.5h4.388v3.186a1.112,1.112,0,0,0,2.225,0V60.38h4.487a2.5,2.5,0,0,0,2.5-2.5V55.537a2.5,2.5,0,0,0-2.5-2.5h-.178a5.4,5.4,0,0,0-4.26-4.906v-12.8a4.569,4.569,0,0,0,2.578-1.751,18.2,18.2,0,0,0,5.05,1.378l-3.041,5.392h-.023a1.571,1.571,0,0,0-1.57,1.57v1.164a4.362,4.362,0,0,0,4.357,4.357H76.29a4.362,4.362,0,0,0,4.357-4.357V41.924a1.571,1.571,0,0,0-1.569-1.57Zm-24.762,0H48.638l2.839-5.034ZM19.309,18.3A16.007,16.007,0,0,1,35.048,2.225h.12A15.849,15.849,0,0,1,51.026,18.083v3.089a5.642,5.642,0,0,0-5.4-2.2,32.072,32.072,0,0,1-4.877-.16,4.975,4.975,0,0,1-4.328-3.777,1.289,1.289,0,0,0-2.506,0,4.975,4.975,0,0,1-4.406,3.79,43.746,43.746,0,0,1-4.921.135,5.764,5.764,0,0,0-5.278,2.212ZM49.625,23.9a3.048,3.048,0,0,1-2.818,2.917v-5.66A2.824,2.824,0,0,1,49.625,23.9ZM34.8,36.9a9.312,9.312,0,0,1-9.047-9.251V21.2c3.708,0,7.168.059,9.417-3.5a7.205,7.205,0,0,0,4.979,3.284,29.923,29.923,0,0,0,4.434.215v6.349A9.369,9.369,0,0,1,34.8,36.9ZM23.528,21.17v5.651C19.945,26.374,19.591,21.627,23.528,21.17Zm2.148,52.538H17.581V56.97a1.112,1.112,0,0,0-2.225,0V73.709H9.744a.818.818,0,0,1-.817-.817v-17.3a8.821,8.821,0,0,1,5.091-7.948l7.016-2.72-1.077,2.235a7.042,7.042,0,0,0-.268,5.45l5.987,16.348v4.755Zm0-11.224-3.9-10.644a4.8,4.8,0,0,1,.182-3.719l2.111-4.379,1.605-.622ZM19.309,43.2V26.635a5.486,5.486,0,0,0,4.308,2.425,11.377,11.377,0,0,0,4.512,7.772v2.948C28.077,39.807,19.363,43.183,19.309,43.2Zm12.713,5.362A6.577,6.577,0,0,1,27.9,49.812V44.195A22.975,22.975,0,0,0,32,48.4a.1.1,0,0,1,.02.163Zm4.916-1.9a2.433,2.433,0,0,0-.665.841H34.061a2.407,2.407,0,0,0-.665-.841,20.388,20.388,0,0,1-4.429-4.831,2.139,2.139,0,0,0,1.387-2.026V38.122a11.926,11.926,0,0,0,9.62.008v1.693a2.173,2.173,0,0,0,1.387,2.026,20.478,20.478,0,0,1-4.423,4.821Zm5.5,3.143a6.584,6.584,0,0,1-4.122-1.246.1.1,0,0,1,.008-.153A23,23,0,0,0,42.434,44.2ZM42.2,39.788l0-2.987a11.647,11.647,0,0,0,4.51-7.741,5.481,5.481,0,0,0,4.32-2.426v6.205c-.384-.02-.767-.053-1.147-.1a1.112,1.112,0,0,0-.673,2.081l-3.123,5.537a1.572,1.572,0,0,0-1.16.489L42.2,39.788Zm6.358,12.054-3.9,10.644V44.3a4.337,4.337,0,0,0,3.35,3.068l.366.758A4.8,4.8,0,0,1,48.557,51.841Zm7.68-8.753A2.135,2.135,0,0,1,54.1,45.22H48.849a2.136,2.136,0,0,1-2.132-2.132v-.509h9.521Zm1.31,2.666a4.334,4.334,0,0,0,.915-2.666V41.924a1.571,1.571,0,0,0-1.57-1.57h-.023l-3.041-5.392a18.2,18.2,0,0,0,5.05-1.378,4.569,4.569,0,0,0,2.578,1.751v12.8a5.335,5.335,0,0,0-.592.162,10.114,10.114,0,0,0-3.319-2.544Zm10.572,9.512a.271.271,0,0,1,.271.271v2.347a.271.271,0,0,1-.271.271H57.02a.271.271,0,0,1-.271-.271V55.537a.271.271,0,0,1,.271-.271Zm-2.41-2.225H59.431a3.16,3.16,0,0,1,6.279,0ZM62.57,33.249A2.332,2.332,0,1,1,64.9,30.917,2.334,2.334,0,0,1,62.57,33.249ZM73.662,35.32,76.5,40.354H70.824Zm4.76,7.767a2.135,2.135,0,0,1-2.132,2.132H71.034A2.135,2.135,0,0,1,68.9,43.088v-.509h9.521Z" transform="translate(-6.702)"/>
        </g>
      </g>
    </g>
  </g>
</svg>
