<svg xmlns="http://www.w3.org/2000/svg" xmlns:xlink="http://www.w3.org/1999/xlink" width="112.317" height="112.317" viewBox="0 0 112.317 112.317">
  <defs>
    <filter id="Path_978624" x="0" y="0" width="112.317" height="112.317" filterUnits="userSpaceOnUse">
      <feOffset dy="3" input="SourceAlpha"/>
      <feGaussianBlur stdDeviation="3" result="blur"/>
      <feFlood flood-opacity="0.161"/>
      <feComposite operator="in" in2="blur"/>
      <feComposite in="SourceGraphic"/>
    </filter>
  </defs>
  <g id="Group_1222216" data-name="Group 1222216" transform="translate(-161.683 -2404.671)">
    <g id="Group_1222089" data-name="Group 1222089">
      <g id="Group_1220782" data-name="Group 1220782" transform="translate(1.719 1507.329)">
        <g id="Group_1215987" data-name="Group 1215987" transform="translate(0 -793.5)">
          <g id="Group_1210476" data-name="Group 1210476" transform="translate(0 -2223.158)">
            <g id="Group_1210475" data-name="Group 1210475" transform="translate(167.192 3920)">
              <g id="Group_1209741" data-name="Group 1209741" transform="translate(1.772)">
                <g id="Group_1178144" data-name="Group 1178144" transform="translate(0 0)">
                  <g id="Group_1177896" data-name="Group 1177896">
                    <g id="Group_1176881" data-name="Group 1176881">
                      <g id="Group_1175148" data-name="Group 1175148">
                        <g id="Group_1173798" data-name="Group 1173798">
                          <g id="Group_1171925" data-name="Group 1171925">
                            <g id="Group_1164524" data-name="Group 1164524">
                              <g id="Group_1144123" data-name="Group 1144123">
                                <g transform="matrix(1, 0, 0, 1, -9, -6)" filter="url(#Path_978624)">
                                  <g id="Path_978624-2" data-name="Path 978624" transform="translate(9 6)" fill="#cfd7c8">
                                    <path d="M 47.15840148925781 92.81680297851562 C 40.993896484375 92.81680297851562 35.01457595825195 91.60981750488281 29.38654899597168 89.22934722900391 C 23.94976234436035 86.92978668212891 19.06670761108398 83.63744354248047 14.8730411529541 79.44376373291016 C 10.67936134338379 75.25009155273438 7.387014865875244 70.36704254150391 5.087454795837402 64.93025207519531 C 2.706988096237183 59.30222702026367 1.500001430511475 53.32290649414062 1.500001430511475 47.15840148925781 C 1.500001430511475 40.993896484375 2.706988096237183 35.01457595825195 5.087454795837402 29.38654899597168 C 7.387014865875244 23.94976234436035 10.67936134338379 19.06670761108398 14.8730411529541 14.8730411529541 C 19.06670761108398 10.67936134338379 23.94976234436035 7.387014865875244 29.38654899597168 5.087454795837402 C 35.01457595825195 2.706988096237183 40.993896484375 1.500001430511475 47.15840148925781 1.500001430511475 C 53.32290649414062 1.500001430511475 59.30222702026367 2.706988096237183 64.93025207519531 5.087454795837402 C 70.36704254150391 7.387014865875244 75.25009155273438 10.67936134338379 79.44376373291016 14.8730411529541 C 83.63744354248047 19.06670761108398 86.92978668212891 23.94976234436035 89.22934722900391 29.38654899597168 C 91.60981750488281 35.01457595825195 92.81680297851562 40.993896484375 92.81680297851562 47.15840148925781 C 92.81680297851562 53.32290649414062 91.60981750488281 59.30222702026367 89.22934722900391 64.93025207519531 C 86.92978668212891 70.36704254150391 83.63744354248047 75.25009155273438 79.44376373291016 79.44376373291016 C 75.25009155273438 83.63744354248047 70.36704254150391 86.92978668212891 64.93025207519531 89.22934722900391 C 59.30222702026367 91.60981750488281 53.32290649414062 92.81680297851562 47.15840148925781 92.81680297851562 Z" stroke="none"/>
                                    <path d="M 47.15840148925781 3 C 41.19572830200195 3 35.41301727294922 4.167129516601562 29.97087097167969 6.468955993652344 C 24.712890625 8.692901611328125 19.99008941650391 11.87730407714844 15.93370056152344 15.93370056152344 C 11.87730407714844 19.99008941650391 8.692901611328125 24.712890625 6.468955993652344 29.97087097167969 C 4.167129516601562 35.41301727294922 3 41.19572830200195 3 47.15840148925781 C 3 53.12107467651367 4.167129516601562 58.90378570556641 6.468955993652344 64.34593200683594 C 8.692901611328125 69.60391235351562 11.87730407714844 74.32671356201172 15.93370056152344 78.38310241699219 C 19.99008941650391 82.43949890136719 24.712890625 85.6239013671875 29.97087097167969 87.84784698486328 C 35.41301727294922 90.14967346191406 41.19572830200195 91.31680297851562 47.15840148925781 91.31680297851562 C 53.12107467651367 91.31680297851562 58.90378570556641 90.14967346191406 64.34593200683594 87.84784698486328 C 69.60391235351562 85.6239013671875 74.32671356201172 82.43949890136719 78.38310241699219 78.38310241699219 C 82.43949890136719 74.32671356201172 85.6239013671875 69.60391235351562 87.84784698486328 64.34593200683594 C 90.14967346191406 58.90378570556641 91.31680297851562 53.12107467651367 91.31680297851562 47.15840148925781 C 91.31680297851562 41.19572830200195 90.14967346191406 35.41301727294922 87.84784698486328 29.97087097167969 C 85.6239013671875 24.712890625 82.43949890136719 19.99008941650391 78.38310241699219 15.93370056152344 C 74.32671356201172 11.87730407714844 69.60391235351562 8.692901611328125 64.34593200683594 6.468955993652344 C 58.90378570556641 4.167129516601562 53.12107467651367 3 47.15840148925781 3 M 47.15840148925781 0 C 73.20327758789062 0 94.31680297851562 21.11353302001953 94.31680297851562 47.15840148925781 C 94.31680297851562 73.20327758789062 73.20327758789062 94.31680297851562 47.15840148925781 94.31680297851562 C 21.11353302001953 94.31680297851562 0 73.20327758789062 0 47.15840148925781 C 0 21.11353302001953 21.11353302001953 0 47.15840148925781 0 Z" stroke="none" fill="#899e78"/>
                                  </g>
                                </g>
                              </g>
                            </g>
                          </g>
                        </g>
                      </g>
                    </g>
                  </g>
                </g>
              </g>
            </g>
          </g>
        </g>
      </g>
      <g id="detener-la-violencia" transform="translate(181.682 2421.669)">
        <g id="Group_1222084" data-name="Group 1222084" transform="translate(1.058 1.058)">
          <path id="Path_1173833" data-name="Path 1173833" d="M42.6,7.5a35.1,35.1,0,1,0,35.1,35.1A35.1,35.1,0,0,0,42.6,7.5ZM19.292,57.426A27.625,27.625,0,0,1,57.426,19.292a.851.851,0,0,1,.138,1.319L20.611,57.564a.851.851,0,0,1-1.319-.138ZM42.6,70.226A27.481,27.481,0,0,1,27.78,65.913a.851.851,0,0,1-.138-1.319L64.595,27.641a.851.851,0,0,1,1.319.138A27.625,27.625,0,0,1,42.6,70.226Z" transform="translate(-7.5 -7.5)" fill="#6bd9e7"/>
        </g>
        <g id="Group_1222085" data-name="Group 1222085" transform="translate(16.372 5.66)">
          <path id="Path_1173834" data-name="Path 1173834" d="M153.254,40.13a35.107,35.107,0,0,1-37.174,59.5,35.106,35.106,0,1,0,37.174-59.5Z" transform="translate(-116.08 -40.13)" fill="#2ed1e2"/>
        </g>
        <g id="Group_1222086" data-name="Group 1222086" transform="translate(20.686 15.769)">
          <path id="Path_1173835" data-name="Path 1173835" d="M174.672,123.652a2.947,2.947,0,0,0-2.947,2.947V117.7a2.947,2.947,0,1,0-5.893,0v-2.947a2.947,2.947,0,1,0-5.893,0V120.2a2.947,2.947,0,1,0-5.893,0v15.239l-1.328-5.425a3.117,3.117,0,0,0-3.869-1.977,3.181,3.181,0,0,0-2.02,4.023l2.323,9.126a18.3,18.3,0,0,0,3.058,5.995,15.242,15.242,0,0,0,10.152,5.267,18.061,18.061,0,0,0,5.908-.2,15.054,15.054,0,0,0,2.744-.837c4.483-1.867,6.606-6.165,6.606-10.878V126.6a2.946,2.946,0,0,0-2.946-2.947Z" transform="translate(-146.669 -111.811)" fill="#f6a96c"/>
        </g>
        <g id="Group_1222087" data-name="Group 1222087" transform="translate(37.325 27.611)">
          <path id="Path_1173836" data-name="Path 1173836" d="M276.012,195.77a2.917,2.917,0,0,0-1.409.36,2.944,2.944,0,0,1,1.536,2.587v13.925c0,4.713-2.123,9.011-6.606,10.878a15.034,15.034,0,0,1-2.745.836,17.068,17.068,0,0,1-2.138.3,17.832,17.832,0,0,0,4.959-.3,15.036,15.036,0,0,0,2.745-.836c4.484-1.867,6.606-6.165,6.606-10.878V198.716A2.947,2.947,0,0,0,276.012,195.77Z" transform="translate(-264.65 -195.77)" fill="#ea9b58"/>
        </g>
        <g id="Group_1222088" data-name="Group 1222088" transform="translate(0)">
          <path id="Path_1173837" data-name="Path 1173837" d="M61.73,10.591A36.164,36.164,0,0,0,13.658,7.853a1.058,1.058,0,1,0,1.317,1.655A34.046,34.046,0,0,1,70.205,36.16,34.045,34.045,0,0,1,12.087,60.234a34.046,34.046,0,0,1-.654-47.475A1.058,1.058,0,0,0,9.9,11.3,36.161,36.161,0,0,0,61.73,61.73a36.161,36.161,0,0,0,0-51.139Z" transform="translate(0)"/>
          <path id="Path_1173838" data-name="Path 1173838" d="M325.986,181.751a1.058,1.058,0,1,0,.83,1.946,28.787,28.787,0,0,0,12.588-10.4,28.638,28.638,0,0,0,.417-31.389,1.909,1.909,0,0,0-2.959-.317l-4.126,4.126a1.058,1.058,0,0,0,1.5,1.5l3.945-3.945a26.592,26.592,0,0,1-12.191,38.486Z" transform="translate(-279.458 -121.137)"/>
          <path id="Path_1173839" data-name="Path 1173839" d="M145.741,386.291a1.058,1.058,0,0,0-1.5,0l-2.657,2.657a1.909,1.909,0,0,0,.317,2.959,28.7,28.7,0,0,0,21.835,3.746,1.058,1.058,0,0,0-.476-2.061,26.59,26.59,0,0,1-20-3.329l2.476-2.476A1.057,1.057,0,0,0,145.741,386.291Z" transform="translate(-121.137 -331.544)"/>
          <path id="Path_1173840" data-name="Path 1173840" d="M97.1,57.508A28.586,28.586,0,0,0,81.712,53.03h0A28.683,28.683,0,0,0,57.509,97.1a1.891,1.891,0,0,0,1.4.867,1.942,1.942,0,0,0,.212.012,1.9,1.9,0,0,0,1.351-.561l5.078-5.078a1.058,1.058,0,0,0-1.5-1.5l-4.9,4.9A26.568,26.568,0,0,1,95.745,59.152l-3.323,3.323a1.058,1.058,0,1,0,1.5,1.5l3.5-3.5a1.909,1.909,0,0,0-.318-2.959Z" transform="translate(-45.552 -45.551)"/>
          <path id="Path_1173841" data-name="Path 1173841" d="M168.24,116.152a3.98,3.98,0,0,0-1.889.475v-5.365a4,4,0,0,0-5.933-3.508,4,4,0,0,0-7.969.561v1.908a4,4,0,0,0-5.893,3.53v8.154a4.151,4.151,0,0,0-4.451-1.329,4.1,4.1,0,0,0-2.441,2.057,4.316,4.316,0,0,0-.285,3.269L141.694,135c0,.012.007.025.01.037a19.43,19.43,0,0,0,3.239,6.348,16.29,16.29,0,0,0,10.852,5.665,19.923,19.923,0,0,0,2.507.16,18.512,18.512,0,0,0,3.748-.378,16.157,16.157,0,0,0,2.937-.9c4.544-1.892,7.257-6.324,7.257-11.855V120.157a4.008,4.008,0,0,0-4-4Zm1.889,17.928c0,4.717-2.17,8.326-5.955,9.9a14.025,14.025,0,0,1-2.552.777,16.913,16.913,0,0,1-5.561.191,14.175,14.175,0,0,1-9.451-4.869,17.265,17.265,0,0,1-2.871-5.624l-2.318-9.107c-.006-.023-.012-.046-.02-.068a2.185,2.185,0,0,1,.141-1.675,2,2,0,0,1,1.185-1.008,2.048,2.048,0,0,1,2.542,1.267l1.706,6.97a1.057,1.057,0,0,0,1.184.795,6.819,6.819,0,0,1,7.4,4.8,1.058,1.058,0,1,0,2.049-.525,8.5,8.5,0,0,0-3.705-4.989,8.944,8.944,0,0,0-5.09-1.464l-.144-15.7a1.889,1.889,0,0,1,3.778,0v11.191a1.058,1.058,0,0,0,2.116,0V108.316a1.889,1.889,0,1,1,3.778,0v16.629a1.058,1.058,0,0,0,2.116,0V111.262a1.889,1.889,0,0,1,3.778,0v13.683a1.058,1.058,0,0,0,2.116,0v-4.788a1.889,1.889,0,1,1,3.778,0V134.08Z" transform="translate(-119.553 -89.599)"/>
        </g>
      </g>
    </g>
  </g>
</svg>
