<svg xmlns="http://www.w3.org/2000/svg" xmlns:xlink="http://www.w3.org/1999/xlink" width="108" height="108" viewBox="0 0 108 108">
  <defs>
    <filter id="Path_904820" x="0" y="0" width="108" height="108" filterUnits="userSpaceOnUse">
      <feOffset dy="3" input="SourceAlpha"/>
      <feGaussianBlur stdDeviation="3" result="blur"/>
      <feFlood flood-opacity="0.161"/>
      <feComposite operator="in" in2="blur"/>
      <feComposite in="SourceGraphic"/>
    </filter>
  </defs>
  <g id="Group_1222203" data-name="Group 1222203" transform="translate(-616.5 -2164)">
    <g id="Group_1222082" data-name="Group 1222082" transform="translate(-0.5 36)">
      <g id="Group_1220657" data-name="Group 1220657" transform="translate(626 2134)">
        <g id="Group_1219944" data-name="Group 1219944" transform="translate(0 0)">
          <g id="Group_1209015" data-name="Group 1209015">
            <g id="Group_1207774" data-name="Group 1207774">
              <g id="Group_1206630" data-name="Group 1206630">
                <g id="Group_1185091" data-name="Group 1185091">
                  <g id="Group_1179560" data-name="Group 1179560">
                    <g id="Group_1173787" data-name="Group 1173787">
                      <g id="Group_1171910" data-name="Group 1171910">
                        <g id="Group_1167341" data-name="Group 1167341">
                          <g id="Group_1166792" data-name="Group 1166792">
                            <g transform="matrix(1, 0, 0, 1, -9, -6)" filter="url(#Path_904820)">
                              <g id="Path_904820-2" data-name="Path 904820" transform="translate(9 6)" fill="#e7f2f8">
                                <path d="M 44.99996948242188 88.50005340576172 C 39.12684631347656 88.50005340576172 33.43020629882812 87.35012817382812 28.06828117370605 85.08221435546875 C 22.88851928710938 82.89136505126953 18.23629379272461 79.754638671875 14.2408447265625 75.75918579101562 C 10.24540710449219 71.76374053955078 7.108694553375244 67.11151123046875 4.917831897735596 61.93173980712891 C 2.649931907653809 56.56980133056641 1.500007033348083 50.87314987182617 1.500007033348083 45.00002670288086 C 1.500007033348083 39.12690353393555 2.649931907653809 33.43025207519531 4.917831897735596 28.06831359863281 C 7.108694553375244 22.8885383605957 10.24540710449219 18.23631477355957 14.2408447265625 14.24086380004883 C 18.23629379272461 10.2454137802124 22.88851928710938 7.108689308166504 28.06828117370605 4.917839050292969 C 33.43020629882812 2.649926662445068 39.12684631347656 1.500001668930054 44.99996948242188 1.500001668930054 C 50.87309265136719 1.500001668930054 56.56973266601562 2.649926662445068 61.93165588378906 4.917839050292969 C 67.11143493652344 7.108689308166504 71.76364135742188 10.2454137802124 75.75909423828125 14.24086380004883 C 79.75454711914062 18.23631477355957 82.89125823974609 22.8885383605957 85.08212280273438 28.06831359863281 C 87.35002136230469 33.43025207519531 88.49994659423828 39.12690353393555 88.49994659423828 45.00002670288086 C 88.49994659423828 50.87314987182617 87.35002136230469 56.56980133056641 85.08212280273438 61.93173980712891 C 82.89125823974609 67.11151123046875 79.75454711914062 71.76374053955078 75.75909423828125 75.75918579101562 C 71.76364135742188 79.754638671875 67.11143493652344 82.89136505126953 61.93165588378906 85.08221435546875 C 56.56973266601562 87.35012817382812 50.87309265136719 88.50005340576172 44.99996948242188 88.50005340576172 Z" stroke="none"/>
                                <path d="M 44.99996948242188 3 C 39.32868194580078 3 33.82863998413086 4.110054016113281 28.65261077880859 6.299339294433594 C 23.65164184570312 8.414566040039062 19.15968322753906 11.44334411621094 15.301513671875 15.30152893066406 C 11.44332885742188 19.15969848632812 8.414566040039062 23.65167236328125 6.299324035644531 28.65264129638672 C 4.110054016113281 33.82868194580078 3 39.32873916625977 3 45.00002670288086 C 3 50.67131423950195 4.110054016113281 56.17137145996094 6.299324035644531 61.347412109375 C 8.414566040039062 66.34838104248047 11.44332885742188 70.84035491943359 15.301513671875 74.69852447509766 C 19.15968322753906 78.55670928955078 23.65164184570312 81.58547973632812 28.65261077880859 83.70071411132812 C 33.82863998413086 85.88999938964844 39.32868194580078 87.00005340576172 44.99996948242188 87.00005340576172 C 50.67125701904297 87.00005340576172 56.17129898071289 85.88999938964844 61.34732818603516 83.70071411132812 C 66.34829711914062 81.58547973632812 70.84025573730469 78.55670928955078 74.69842529296875 74.69852447509766 C 78.55661010742188 70.84035491943359 81.58537292480469 66.34838104248047 83.70061492919922 61.347412109375 C 85.88988494873047 56.17137145996094 86.99993896484375 50.67131423950195 86.99993896484375 45.00002670288086 C 86.99993896484375 39.32873916625977 85.88988494873047 33.82868194580078 83.70061492919922 28.65264129638672 C 81.58537292480469 23.65167236328125 78.55661010742188 19.15969848632812 74.69842529296875 15.30152893066406 C 70.84025573730469 11.44334411621094 66.34829711914062 8.414566040039062 61.34732818603516 6.299339294433594 C 56.17129898071289 4.110054016113281 50.67125701904297 3 44.99996948242188 3 M 44.99996948242188 0 C 69.85276794433594 0 89.99993896484375 20.14720153808594 89.99993896484375 45.00002670288086 C 89.99993896484375 69.85285949707031 69.85276794433594 90.00005340576172 44.99996948242188 90.00005340576172 C 20.14717102050781 90.00005340576172 0 69.85285949707031 0 45.00002670288086 C 0 20.14720153808594 20.14717102050781 0 44.99996948242188 0 Z" stroke="none" fill="#248abf"/>
                              </g>
                            </g>
                          </g>
                        </g>
                      </g>
                    </g>
                  </g>
                </g>
              </g>
            </g>
          </g>
        </g>
      </g>
      <g id="libertad_1_" data-name="libertad (1)" transform="translate(624.346 2147.335)">
        <g id="Group_1222080" data-name="Group 1222080" transform="translate(13.399 1.123)">
          <g id="Group_1222077" data-name="Group 1222077" transform="translate(9.173)">
            <path id="Path_1173807" data-name="Path 1173807" d="M120.793,26a4.723,4.723,0,0,1,4.731-4.715q.138,0,.275.008c2.4.819,4.044,2.31,4.044,4.822l.071,7.856c0,2.6-1.712,4.8-4.325,4.8-2.023,0-3.354-1.183-4.49-2.563a4.691,4.691,0,0,1-.3-1.668l1.328-5.547-1.328-2.415V26Z" transform="translate(-114.957 -19.219)" fill="#d5877a"/>
            <path id="Path_1173808" data-name="Path 1173808" d="M130.246,26.038l1.782,2.452-1.782,6.088a4.727,4.727,0,0,1-8.066,3.335,4.81,4.81,0,0,1-1.384-3.335v-7.96l4.013-.979a1.3,1.3,0,0,0,.991-1.262V21.33a4.717,4.717,0,0,1,4.446,4.708Z" transform="translate(-114.959 -19.259)" fill="#c86f5c"/>
            <path id="Path_1173809" data-name="Path 1173809" d="M166.358,76.154l.064,10.716c-.15,4.312-2.842,12.56-2.9,12.7a16.078,16.078,0,0,0-.856,5.966v27.244a1.125,1.125,0,0,1-1.125,1.125l-7.228.955H142.643l-5.066-.891a1.125,1.125,0,0,1-1.125-1.125V105.9a8.8,8.8,0,0,0-2.128-5.8,6.74,6.74,0,0,0-2.163-1.693l-.824-21.6,17.628-7.036Z" transform="translate(-123.922 -60.439)" fill="#d5877a"/>
            <path id="Path_1173810" data-name="Path 1173810" d="M324.179,131.554c.053-.137.105-.268.158-.39a35.121,35.121,0,0,0,2.8-12.543l-.064-10.716-4.113-1.557.051,8.521a35.116,35.116,0,0,1-2.8,12.543c-.053.122-.105.253-.158.39a16.67,16.67,0,0,0-1.11,6.044v28.116h4.126V137.6A16.674,16.674,0,0,1,324.179,131.554Z" transform="translate(-283.436 -91.548)" fill="#c86f5c"/>
            <g id="Group_1222075" data-name="Group 1222075" transform="translate(32.577 4.603)">
              <path id="Path_1173811" data-name="Path 1173811" d="M300.99,42.958a4.723,4.723,0,0,1,4.731-4.715q.138,0,.275.008c2.4.819,4.044,2.31,4.044,4.822l.071,7.856c0,2.6-1.712,4.8-4.325,4.8-2.023,0-3.354-1.183-4.49-2.563a4.691,4.691,0,0,1-.3-1.669l-1.612-4.267Z" transform="translate(-299.378 -38.243)" fill="#d5877a"/>
              <path id="Path_1173812" data-name="Path 1173812" d="M321.323,43v8.54a4.728,4.728,0,0,1-9.146,1.669,4.713,4.713,0,0,0,4.7-4.715v-10.2A4.717,4.717,0,0,1,321.323,43Z" transform="translate(-310.261 -38.282)" fill="#c86f5c"/>
            </g>
            <g id="Group_1222076" data-name="Group 1222076" transform="translate(23.439 1.931)">
              <path id="Path_1173813" data-name="Path 1173813" d="M239.651,25.109a4.723,4.723,0,0,1,4.731-4.715q.138,0,.275.008c2.4.819,4.044,2.31,4.044,4.822l.071,10.826c0,2.6-1.712,4.8-4.325,4.8-2.023,0-3.354-1.183-4.49-2.563a4.691,4.691,0,0,1-.3-1.669l-1.3-5.246Z" transform="translate(-238.353 -20.394)" fill="#d5877a"/>
              <path id="Path_1173814" data-name="Path 1173814" d="M258.207,25.148v11.51a4.728,4.728,0,0,1-9.146,1.669,4.713,4.713,0,0,0,4.7-4.715V20.44a4.717,4.717,0,0,1,4.445,4.708Z" transform="translate(-247.458 -20.433)" fill="#c86f5c"/>
            </g>
            <path id="Path_1173815" data-name="Path 1173815" d="M183.909,12.215A4.723,4.723,0,0,1,188.64,7.5q.138,0,.275.008c2.4.819,4.044,2.31,4.044,4.822l.071,12.014c0,2.6-1.712,4.8-4.325,4.8-2.291-.169-4.765-1.608-4.794-4.232l1.04-7.981-1.04-2.968v-1.75Z" transform="translate(-168.622 -7.5)" fill="#d5877a"/>
            <path id="Path_1173816" data-name="Path 1173816" d="M193.358,12.257v12.7a4.726,4.726,0,0,1-9.452,0V14.007a8.248,8.248,0,0,1,3.836,1.189.767.767,0,0,0,1.17-.65v-7a4.717,4.717,0,0,1,4.446,4.708Z" transform="translate(-168.619 -7.542)" fill="#c86f5c"/>
            <path id="Path_1173817" data-name="Path 1173817" d="M92.217,95.513a6.74,6.74,0,0,0-2.163-1.693,14.231,14.231,0,0,1-8.231-12.882l-.008-9.485h0a4.72,4.72,0,0,1,3.727-4.5l10.11-2.467a4.716,4.716,0,1,1,2,9.217l-5.481,1.43Z" transform="translate(-81.815 -55.859)" fill="#d5877a"/>
          </g>
          <g id="Group_1222079" data-name="Group 1222079" transform="translate(0 50.179)">
            <path id="Path_1173818" data-name="Path 1173818" d="M295.533,342.866l-1.835-.252h-7.844a.3.3,0,0,0-.234.113l-2.291,2.863a.3.3,0,0,0,0,.375l2.289,2.863a.3.3,0,0,0,.234.113h9.68a6.417,6.417,0,0,1,1.2.121c3.755-.018,5.449,2.765,5.514,5.533.067,2.851-2.382,5.883-5.454,5.818a5.509,5.509,0,0,1-1.153.115H283.273a.3.3,0,0,0-.235.487l1.905,2.4a.3.3,0,0,1,0,.375l-2.074,2.577a.3.3,0,0,0,.234.488h10.257l2.457-.241c4.309,0,7.384-2.307,9.534-5.7a11,11,0,0,0,1.732-6.294,11.914,11.914,0,0,0-1.895-6.344A10.9,10.9,0,0,0,295.533,342.866Z" transform="translate(-243.533 -342.614)" fill="#dae6ed"/>
            <path id="Path_1173819" data-name="Path 1173819" d="M360.205,354.618a12.129,12.129,0,0,1-12.119,12.239h-3.45a12.1,12.1,0,0,0,9.408-4.488.716.716,0,0,0-.553-1.169h-1.139a6.607,6.607,0,0,1-3.114-.784,5.784,5.784,0,0,0-.06-11.351,6.415,6.415,0,0,1,3.086-.791h1.191A.716.716,0,0,0,354,347.1a12.342,12.342,0,0,0-9.523-4.484h3.45a12.339,12.339,0,0,1,10.379,5.657A11.913,11.913,0,0,1,360.205,354.618Z" transform="translate(-295.978 -342.616)" fill="#c7dae5"/>
            <path id="Path_1173820" data-name="Path 1173820" d="M93.334,342.613H81.243a12.337,12.337,0,0,0-10.378,5.657c-1.179,1.836-.546,4.007-.569,6.344-.023,2.419-.661,4.679.543,6.583a12.122,12.122,0,0,0,10.249,5.657h9.493a.3.3,0,0,0,.234-.112l2.377-2.953a.3.3,0,0,0,0-.375l-2.2-2.773a.3.3,0,0,0-.235-.114H81.2a6.407,6.407,0,0,1-1.2-.121c-3.277.3-5.709-2.764-5.776-5.53a5.874,5.874,0,0,1,5.715-5.821,5.507,5.507,0,0,1,1.153-.115H93.333a.3.3,0,0,0,.234-.487l-1.989-2.488a.3.3,0,0,1,0-.375l1.99-2.488a.3.3,0,0,0-.234-.487Z" transform="translate(-62.687 -342.613)" fill="#dae6ed"/>
            <path id="Path_1173821" data-name="Path 1173821" d="M73.532,392.531a6.42,6.42,0,0,1-3.087.791H64.374a12.056,12.056,0,0,1-1.871-6.582,11.894,11.894,0,0,1,1.9-6.344h5.957a6.607,6.607,0,0,1,3.114.784,5.783,5.783,0,0,0,.062,11.351Z" transform="translate(-56.222 -374.738)" fill="#c7dae5"/>
            <g id="Group_1222078" data-name="Group 1222078" transform="translate(0 8.957)">
              <path id="Path_1173822" data-name="Path 1173822" d="M34.78,408.76H23.808a3.219,3.219,0,0,1-3.243-3.4,3.163,3.163,0,0,1,3.155-2.928H34.691a3.219,3.219,0,0,1,3.243,3.4A3.164,3.164,0,0,1,34.78,408.76Z" transform="translate(-20.557 -402.434)" fill="#dae6ed"/>
              <path id="Path_1173823" data-name="Path 1173823" d="M389.557,408.76H378.585a3.219,3.219,0,0,1-3.243-3.4,3.163,3.163,0,0,1,3.155-2.928h10.971a3.219,3.219,0,0,1,3.243,3.4A3.163,3.163,0,0,1,389.557,408.76Z" transform="translate(-322.211 -402.434)" fill="#dae6ed"/>
            </g>
          </g>
        </g>
        <g id="Group_1222081" data-name="Group 1222081" transform="translate(12.139 0)">
          <path id="Path_1173824" data-name="Path 1173824" d="M95.6,24.578a5.87,5.87,0,0,0,4.488-2.086,5.878,5.878,0,0,0,9.9.25,5.868,5.868,0,0,0,8.285,1.021v3.617c0,.5-.011,1-.032,1.472a1.123,1.123,0,0,0,1.072,1.172h.051a1.123,1.123,0,0,0,1.121-1.073c.023-.509.034-1.037.034-1.571V19.145s0,0,0-.006V10.527a5.877,5.877,0,0,0-9.771-4.406,5.876,5.876,0,0,0-9.72-2.51,5.88,5.88,0,0,0-10.8-.105,5.931,5.931,0,0,0-10.1,4.174V11.2l-.789.193a5.873,5.873,0,0,0-4.622,5.642l0,2.474a1.123,1.123,0,0,0,1.123,1.122h0A1.123,1.123,0,0,0,76.959,19.5l0-2.391a3.63,3.63,0,0,1,2.867-3.53c.015,0,10.163-2.487,10.183-2.491a3.636,3.636,0,1,1,1.48,7.119l-5.513,1.443A1.123,1.123,0,0,0,85.164,21l1.2,5.1a1.131,1.131,0,0,0,1.1.866,11.067,11.067,0,0,1,6.592,1.867,11.579,11.579,0,0,1,4.187,6.062,1.123,1.123,0,0,0,2.133-.7,13.764,13.764,0,0,0-5.028-7.2,12.968,12.968,0,0,0-7-2.258L87.6,21.549l2.534-.663a5.907,5.907,0,0,0,5.46,3.692ZM114.629,6.891a3.64,3.64,0,0,1,3.636,3.635v8.619a3.636,3.636,0,0,1-7.271,0V10.527A3.64,3.64,0,0,1,114.629,6.891Zm-9.517-2.7a3.64,3.64,0,0,1,3.636,3.635V19.445a3.636,3.636,0,1,1-7.271,0V7.83a3.64,3.64,0,0,1,3.636-3.636ZM82.368,10.648V7.68a3.673,3.673,0,0,1,7.346,0V8.862ZM96.511,13.4A5.922,5.922,0,0,0,91.96,8.889V5.882a3.636,3.636,0,1,1,7.271,0V18.7a3.636,3.636,0,0,1-6.892,1.617A5.89,5.89,0,0,0,96.511,13.4Z" transform="translate(-65.341 0)"/>
          <path id="Path_1173825" data-name="Path 1173825" d="M45.958,185.456a1.123,1.123,0,0,0-1.012-.636H36.56v-3.943a8.528,8.528,0,0,0-4.9-7.7l-.033-.015a13.3,13.3,0,0,1-7.6-11.971v-1.774a1.123,1.123,0,0,0-1.123-1.122h0a1.123,1.123,0,0,0-1.122,1.124V161.2a15.549,15.549,0,0,0,8.926,14.018l.031.014a6.274,6.274,0,0,1,3.571,5.647v3.943H31.945a13.1,13.1,0,0,0-5.321,1.118,1.123,1.123,0,1,0,.907,2.055,10.867,10.867,0,0,1,4.415-.927H42.609L41.544,188.4a1.123,1.123,0,0,0,0,1.4l1.066,1.334H31.945a6.94,6.94,0,0,0-5.412,2.626H21.841a10.874,10.874,0,0,1,1.82-2.909,1.123,1.123,0,0,0-1.694-1.475,13.085,13.085,0,0,0-2.529,4.383h-2.7a4.3,4.3,0,0,0-4.269,3.964,4.194,4.194,0,0,0,1.131,3.191,4.418,4.418,0,0,0,3.226,1.406h2.614a13.359,13.359,0,0,0,4.54,6.264,13.091,13.091,0,0,0,7.967,2.677h9.773a1.123,1.123,0,0,0,.875-.419l2.613-3.246a1.123,1.123,0,0,0,0-1.4l-2.436-3.068a1.123,1.123,0,0,0-.88-.425H36.56V193.38h8.384a1.123,1.123,0,0,0,.877-1.824L43.859,189.1l1.964-2.455A1.123,1.123,0,0,0,45.958,185.456Zm-30.715,13.93a1.971,1.971,0,0,1-.536-1.5,2.041,2.041,0,0,1,2.029-1.882H27.687a2.165,2.165,0,0,1,1.581.689,1.971,1.971,0,0,1,.536,1.5,2.041,2.041,0,0,1-2.029,1.882H16.824a2.165,2.165,0,0,1-1.581-.689Zm27.651,7.5-1.713,2.128H31.945a11.054,11.054,0,0,1-10.1-6.694h4.689a6.941,6.941,0,0,0,5.412,2.626h9.408Zm-8.58-4.186H31.945a4.619,4.619,0,0,1-2.5-.725,4.294,4.294,0,0,0,2.595-3.619,4.194,4.194,0,0,0-1.131-3.191,4.405,4.405,0,0,0-1.488-1.047,4.619,4.619,0,0,1,2.52-.74h2.369Z" transform="translate(-12.407 -134.597)"/>
          <path id="Path_1173826" data-name="Path 1173826" d="M302.623,247.794h-2.614a13.354,13.354,0,0,0-4.54-6.264,13.093,13.093,0,0,0-7.967-2.676h-2.369v-3.031a13.824,13.824,0,0,1,1.109-5.435l.019-.046a36.764,36.764,0,0,0,2.209-7.149,1.123,1.123,0,1,0-2.2-.441,34.539,34.539,0,0,1-2.077,6.719l-.019.046a16.048,16.048,0,0,0-1.284,6.306v3.031h-5.453a1.123,1.123,0,0,0-.877.421l-2.526,3.156a1.123,1.123,0,0,0,0,1.4l2.525,3.158a1.123,1.123,0,0,0,.877.422h5.455v9.321h-8.505a1.123,1.123,0,0,0-.88,1.821l1.878,2.365-2.05,2.547a1.123,1.123,0,0,0,.875,1.827h13.3a13.092,13.092,0,0,0,7.967-2.676,13.359,13.359,0,0,0,4.54-6.264h2.7a4.3,4.3,0,0,0,4.269-3.964,4.194,4.194,0,0,0-1.131-3.191,4.419,4.419,0,0,0-3.227-1.406Zm-26.278-4.661,1.628-2.034H287.5a11.052,11.052,0,0,1,10.1,6.694h-4.689a6.941,6.941,0,0,0-5.412-2.626h-9.53Zm8.787,4.281H287.5a4.618,4.618,0,0,1,2.5.725,4.3,4.3,0,0,0-2.6,3.619,4.194,4.194,0,0,0,1.131,3.191,4.4,4.4,0,0,0,1.488,1.046,4.618,4.618,0,0,1-2.52.74h-2.369Zm2.369,15.635H276.55l1.142-1.419a1.123,1.123,0,0,0,0-1.4l-.99-1.247H287.5a6.94,6.94,0,0,0,5.412-2.626H297.6A11.054,11.054,0,0,1,287.5,263.049Zm17.239-10.823a2.041,2.041,0,0,1-2.029,1.882H291.76a2.165,2.165,0,0,1-1.581-.689,1.971,1.971,0,0,1-.536-1.5,2.041,2.041,0,0,1,2.029-1.882h10.951a2.165,2.165,0,0,1,1.581.689A1.971,1.971,0,0,1,304.74,252.226Z" transform="translate(-234.009 -188.63)"/>
          <path id="Path_1173827" data-name="Path 1173827" d="M434.269,295.878a1.119,1.119,0,0,0,.794-.329l4.148-4.148a1.123,1.123,0,0,0-1.588-1.588l-4.148,4.148a1.123,1.123,0,0,0,.794,1.917Z" transform="translate(-370.106 -246.138)"/>
          <path id="Path_1173828" data-name="Path 1173828" d="M407.622,271.473a1.122,1.122,0,0,0,1.375-.794l1.017-3.8a1.123,1.123,0,1,0-2.17-.581l-1.017,3.8A1.123,1.123,0,0,0,407.622,271.473Z" transform="translate(-347.696 -225.718)"/>
          <path id="Path_1173829" data-name="Path 1173829" d="M459.539,339.174a1.122,1.122,0,0,0,1.375.794l3.8-1.017a1.123,1.123,0,1,0-.581-2.17l-3.8,1.017A1.123,1.123,0,0,0,459.539,339.174Z" transform="translate(-392.514 -286.321)"/>
          <path id="Path_1173830" data-name="Path 1173830" d="M40.631,295.549a1.123,1.123,0,0,0,1.588-1.588l-4.148-4.148a1.123,1.123,0,1,0-1.588,1.588Z" transform="translate(-32.558 -246.138)"/>
          <path id="Path_1173831" data-name="Path 1173831" d="M85.554,271.512A1.124,1.124,0,0,0,86.64,270.1l-1.017-3.8a1.123,1.123,0,1,0-2.17.581l1.017,3.8A1.123,1.123,0,0,0,85.554,271.512Z" transform="translate(-72.742 -225.718)"/>
          <path id="Path_1173832" data-name="Path 1173832" d="M12.971,338.952l3.8,1.017a1.123,1.123,0,0,0,.581-2.17l-3.8-1.017a1.123,1.123,0,1,0-.581,2.17Z" transform="translate(-12.139 -286.321)"/>
        </g>
      </g>
    </g>
  </g>
</svg>
