<svg xmlns="http://www.w3.org/2000/svg" xmlns:xlink="http://www.w3.org/1999/xlink" width="112.317" height="113.882" viewBox="0 0 112.317 113.882">
  <defs>
    <filter id="Path_978624" x="0" y="0" width="112.317" height="112.317" filterUnits="userSpaceOnUse">
      <feOffset dy="3" input="SourceAlpha"/>
      <feGaussianBlur stdDeviation="3" result="blur"/>
      <feFlood flood-opacity="0.161"/>
      <feComposite operator="in" in2="blur"/>
      <feComposite in="SourceGraphic"/>
    </filter>
  </defs>
  <g id="Group_1222193" data-name="Group 1222193" transform="translate(-156.842 -3706)">
    <g id="Group_1222072" data-name="Group 1222072">
      <g id="Group_1220636" data-name="Group 1220636" transform="translate(-3.123 2808.658)">
        <g id="Group_1215987" data-name="Group 1215987" transform="translate(0 -793.5)">
          <g id="Group_1210476" data-name="Group 1210476" transform="translate(0 -2223.158)">
            <g id="Group_1210475" data-name="Group 1210475" transform="translate(167.192 3920)">
              <g id="Group_1209741" data-name="Group 1209741" transform="translate(1.772)">
                <g id="Group_1178144" data-name="Group 1178144" transform="translate(0 0)">
                  <g id="Group_1177896" data-name="Group 1177896">
                    <g id="Group_1176881" data-name="Group 1176881">
                      <g id="Group_1175148" data-name="Group 1175148">
                        <g id="Group_1173798" data-name="Group 1173798">
                          <g id="Group_1171925" data-name="Group 1171925">
                            <g id="Group_1164524" data-name="Group 1164524">
                              <g id="Group_1144123" data-name="Group 1144123">
                                <g transform="matrix(1, 0, 0, 1, -9, -6)" filter="url(#Path_978624)">
                                  <g id="Path_978624-2" data-name="Path 978624" transform="translate(9 6)" fill="#cfd7c8">
                                    <path d="M 47.15840148925781 92.81680297851562 C 40.993896484375 92.81680297851562 35.01457595825195 91.60981750488281 29.38654899597168 89.22934722900391 C 23.94976234436035 86.92978668212891 19.06670761108398 83.63744354248047 14.8730411529541 79.44376373291016 C 10.67936134338379 75.25009155273438 7.387014865875244 70.36704254150391 5.087454795837402 64.93025207519531 C 2.706988096237183 59.30222702026367 1.500001430511475 53.32290649414062 1.500001430511475 47.15840148925781 C 1.500001430511475 40.993896484375 2.706988096237183 35.01457595825195 5.087454795837402 29.38654899597168 C 7.387014865875244 23.94976234436035 10.67936134338379 19.06670761108398 14.8730411529541 14.8730411529541 C 19.06670761108398 10.67936134338379 23.94976234436035 7.387014865875244 29.38654899597168 5.087454795837402 C 35.01457595825195 2.706988096237183 40.993896484375 1.500001430511475 47.15840148925781 1.500001430511475 C 53.32290649414062 1.500001430511475 59.30222702026367 2.706988096237183 64.93025207519531 5.087454795837402 C 70.36704254150391 7.387014865875244 75.25009155273438 10.67936134338379 79.44376373291016 14.8730411529541 C 83.63744354248047 19.06670761108398 86.92978668212891 23.94976234436035 89.22934722900391 29.38654899597168 C 91.60981750488281 35.01457595825195 92.81680297851562 40.993896484375 92.81680297851562 47.15840148925781 C 92.81680297851562 53.32290649414062 91.60981750488281 59.30222702026367 89.22934722900391 64.93025207519531 C 86.92978668212891 70.36704254150391 83.63744354248047 75.25009155273438 79.44376373291016 79.44376373291016 C 75.25009155273438 83.63744354248047 70.36704254150391 86.92978668212891 64.93025207519531 89.22934722900391 C 59.30222702026367 91.60981750488281 53.32290649414062 92.81680297851562 47.15840148925781 92.81680297851562 Z" stroke="none"/>
                                    <path d="M 47.15840148925781 3 C 41.19572830200195 3 35.41301727294922 4.167129516601562 29.97087097167969 6.468955993652344 C 24.712890625 8.692901611328125 19.99008941650391 11.87730407714844 15.93370056152344 15.93370056152344 C 11.87730407714844 19.99008941650391 8.692901611328125 24.712890625 6.468955993652344 29.97087097167969 C 4.167129516601562 35.41301727294922 3 41.19572830200195 3 47.15840148925781 C 3 53.12107467651367 4.167129516601562 58.90378570556641 6.468955993652344 64.34593200683594 C 8.692901611328125 69.60391235351562 11.87730407714844 74.32671356201172 15.93370056152344 78.38310241699219 C 19.99008941650391 82.43949890136719 24.712890625 85.6239013671875 29.97087097167969 87.84784698486328 C 35.41301727294922 90.14967346191406 41.19572830200195 91.31680297851562 47.15840148925781 91.31680297851562 C 53.12107467651367 91.31680297851562 58.90378570556641 90.14967346191406 64.34593200683594 87.84784698486328 C 69.60391235351562 85.6239013671875 74.32671356201172 82.43949890136719 78.38310241699219 78.38310241699219 C 82.43949890136719 74.32671356201172 85.6239013671875 69.60391235351562 87.84784698486328 64.34593200683594 C 90.14967346191406 58.90378570556641 91.31680297851562 53.12107467651367 91.31680297851562 47.15840148925781 C 91.31680297851562 41.19572830200195 90.14967346191406 35.41301727294922 87.84784698486328 29.97087097167969 C 85.6239013671875 24.712890625 82.43949890136719 19.99008941650391 78.38310241699219 15.93370056152344 C 74.32671356201172 11.87730407714844 69.60391235351562 8.692901611328125 64.34593200683594 6.468955993652344 C 58.90378570556641 4.167129516601562 53.12107467651367 3 47.15840148925781 3 M 47.15840148925781 0 C 73.20327758789062 0 94.31680297851562 21.11353302001953 94.31680297851562 47.15840148925781 C 94.31680297851562 73.20327758789062 73.20327758789062 94.31680297851562 47.15840148925781 94.31680297851562 C 21.11353302001953 94.31680297851562 0 73.20327758789062 0 47.15840148925781 C 0 21.11353302001953 21.11353302001953 0 47.15840148925781 0 Z" stroke="none" fill="#899e78"/>
                                  </g>
                                </g>
                              </g>
                            </g>
                          </g>
                        </g>
                      </g>
                    </g>
                  </g>
                </g>
              </g>
            </g>
          </g>
        </g>
      </g>
      <g id="Fill_out_line" data-name="Fill out line" transform="translate(153.276 3713)">
        <path id="Path_1173761" data-name="Path 1173761" d="M375.9,36.118a3.787,3.787,0,0,0,3.787-3.787V30.059A6.059,6.059,0,0,0,373.632,24H360V36.118Z" transform="translate(-278.868 -6.485)" fill="#f0bca1"/>
        <path id="Path_1173762" data-name="Path 1173762" d="M139.5,111.852H88V30.059A6.059,6.059,0,0,1,94.059,24h57.558a6.059,6.059,0,0,0-6.059,6.059v75.735A6.059,6.059,0,0,1,139.5,111.852Z" transform="translate(-58.368 -6.485)" fill="#ffd9b5"/>
        <path id="Path_1173763" data-name="Path 1173763" d="M307.787,424a3.787,3.787,0,0,1,3.787,3.787v2.272H304V424Z" transform="translate(-233.471 -330.75)" fill="#f5c9aa"/>
        <path id="Path_1173764" data-name="Path 1173764" d="M77.014,432.331a3.787,3.787,0,0,0,3.787,3.787H27.787A3.787,3.787,0,0,1,24,432.331v-4.544A3.787,3.787,0,0,1,27.787,424H80.8a3.787,3.787,0,0,0-3.787,3.787Z" transform="translate(-6.485 -330.75)" fill="#ffe3cd"/>
        <path id="Path_1173765" data-name="Path 1173765" d="M392,56h6.059v2.272a3.787,3.787,0,0,0,3.787,3.787H392Z" transform="translate(-304.809 -32.427)" fill="#f5c9aa"/>
        <path id="Path_1173766" data-name="Path 1173766" d="M222.059,119.147H216L217.515,104h3.029Z" transform="translate(-162.133 -71.338)" fill="#ba8b5d"/>
        <path id="Path_1173767" data-name="Path 1173767" d="M134.059,145.088A6.066,6.066,0,0,1,128,139.029v-1.515A1.515,1.515,0,0,1,129.515,136H138.6a1.515,1.515,0,0,1,1.515,1.515v1.515A6.066,6.066,0,0,1,134.059,145.088Z" transform="translate(-90.794 -97.28)" fill="#fab53f"/>
        <path id="Path_1173768" data-name="Path 1173768" d="M278.059,145.088A6.066,6.066,0,0,1,272,139.029v-1.515A1.515,1.515,0,0,1,273.515,136H282.6a1.515,1.515,0,0,1,1.515,1.515v1.515A6.066,6.066,0,0,1,278.059,145.088Z" transform="translate(-207.53 -97.28)" fill="#fab53f"/>
        <rect id="Rectangle_421122" data-name="Rectangle 421122" width="15.275" height="5.391" rx="2.696" transform="translate(49.246 48.347)" fill="#9f764a"/>
        <path id="Path_1173769" data-name="Path 1173769" d="M172.353,64.284a3.029,3.029,0,0,0-3.029-3.029h-1.515a8.568,8.568,0,0,0-12.118,0h-3.029a8.568,8.568,0,0,0-12.118,0h-1.515a3.029,3.029,0,0,0,0,6.059h1.515a8.568,8.568,0,0,1,12.118,0h3.029a8.568,8.568,0,0,1,12.118,0h1.515A3.029,3.029,0,0,0,172.353,64.284Z" transform="translate(-97.28 -34.652)" fill="#9f764a"/>
        <path id="Path_1173770" data-name="Path 1173770" d="M377.75,147.029l-2.352,4.7-1.356,2.711-14.469,28.938L352,190.956l1.062-7.441.453-3.162,14.469-28.94,1.356-2.709,2.352-4.7Z" transform="translate(-272.383 -103.765)" fill="#529ddf"/>
        <path id="Path_1173771" data-name="Path 1173771" d="M364.121,339.029l-2.259,2.259-4.253-2.126.452-3.162Z" transform="translate(-276.931 -259.412)" fill="#4384c3"/>
        <path id="Path_1173772" data-name="Path 1173772" d="M357.315,354.826,352,360.141l1.062-7.441Z" transform="translate(-272.383 -272.95)" fill="#68737f"/>
        <path id="Path_1173773" data-name="Path 1173773" d="M371.941,139.188l-6.059-3.029a1.515,1.515,0,0,0-2.032.677l-2.352,4.7-1.471-.736a4.923,4.923,0,0,0-6.726,2.464l-3.12,7.281,2.785,1.193,3.12-7.281a1.893,1.893,0,0,1,2.587-.948l1.471.736-14.47,28.939a1.516,1.516,0,0,0-.145.463l-1.515,10.6a1.515,1.515,0,0,0,2.571,1.285l7.573-7.574a1.517,1.517,0,0,0,.284-.394l18.176-36.353a1.515,1.515,0,0,0-.677-2.032ZM351.843,176l-4.187,4.186.837-5.861,14.36-28.719,3.349,1.675Zm15.714-31.429-3.349-1.675,1.675-3.349,3.349,1.675Z" transform="translate(-265.897 -97.278)"/>
        <path id="Path_1173774" data-name="Path 1173774" d="M83.03,23.573a4.549,4.549,0,0,1,4.544-4.544h51.5a7.535,7.535,0,0,0-1.518,4.544V41.75h3.029V23.573a4.549,4.549,0,0,1,4.544-4.544h1.515a4.549,4.549,0,0,1,4.544,4.544v2.272a2.272,2.272,0,0,1-4.544,0V23.573a1.515,1.515,0,0,0-1.515-1.515H142.1v3.029h1.515v.757a5.269,5.269,0,0,0,.512,2.272H142.1v3.029h6.816a5.307,5.307,0,0,0,5.3-5.3V23.573A7.582,7.582,0,0,0,146.647,16H87.574A7.582,7.582,0,0,0,80,23.573V88.705H83.03Z" transform="translate(-51.883)"/>
        <path id="Path_1173775" data-name="Path 1173775" d="M85.676,397.632a4.549,4.549,0,0,1-4.544,4.544H74.316a2.275,2.275,0,0,1-2.272-2.272V395.36a2.272,2.272,0,0,1,4.544,0v.757H73.558v3.029H78.1a1.515,1.515,0,0,0,1.515-1.515V395.36a5.307,5.307,0,0,0-5.3-5.3H21.3a5.307,5.307,0,0,0-5.3,5.3V399.9a5.307,5.307,0,0,0,5.3,5.3H81.132a7.582,7.582,0,0,0,7.573-7.573V384H85.676Zm-16.15,4.544H21.3a2.275,2.275,0,0,1-2.272-2.272V395.36a2.275,2.275,0,0,1,2.272-2.272H69.526a5.269,5.269,0,0,0-.512,2.272V399.9A5.27,5.27,0,0,0,69.526,402.176Z" transform="translate(0 -298.324)"/>
        <path id="Path_1173776" data-name="Path 1173776" d="M128,67.691a6.059,6.059,0,1,0,12.118,0V66.176a1.506,1.506,0,0,0-.217-.779h0l-3.885-6.475a7.054,7.054,0,0,1,8.576.287l-1.3,13.026h-.144a4.544,4.544,0,1,0,0,9.088h9.088a4.544,4.544,0,0,0,0-9.088h-.144l-1.3-13.026a7.054,7.054,0,0,1,8.576-.287L155.479,65.4h0a1.505,1.505,0,0,0-.217.779v1.515a6.059,6.059,0,1,0,12.118,0V66.176a1.506,1.506,0,0,0-.217-.779h0l-3.246-5.411a4.544,4.544,0,0,0-1.082-8.957h-.916a10.084,10.084,0,0,0-12.716-.486V48h-3.029v2.543a10.084,10.084,0,0,0-12.716.486h-.916a4.544,4.544,0,0,0-1.082,8.957L128.214,65.4h0a1.506,1.506,0,0,0-.217.779Zm6.059,3.029a3.033,3.033,0,0,1-3.029-3.029h6.059A3.033,3.033,0,0,1,134.057,70.72Zm1.869-6.059h-3.738l1.869-3.115Zm17.822,12.118a1.516,1.516,0,0,1-1.515,1.515h-9.088a1.515,1.515,0,1,1,0-3.029h9.088A1.516,1.516,0,0,1,153.748,76.779Zm-7.415-4.544,1.212-12.118h.288l1.212,12.118Zm16.857-7.573h-3.738l1.869-3.115Zm-1.869,6.059a3.033,3.033,0,0,1-3.029-3.029h6.059A3.033,3.033,0,0,1,161.322,70.72ZM132.543,54.059h1.515a1.515,1.515,0,0,0,1.071-.444,7.054,7.054,0,0,1,9.975,0,1.515,1.515,0,0,0,1.071.444H149.2a1.515,1.515,0,0,0,1.071-.444,7.054,7.054,0,0,1,9.975,0,1.515,1.515,0,0,0,1.071.444h1.515a1.515,1.515,0,0,1,0,3.029h-.916a10.085,10.085,0,0,0-13.315,0h-1.832a10.085,10.085,0,0,0-13.315,0h-.916a1.515,1.515,0,0,1,0-3.029Z" transform="translate(-90.793 -25.941)"/>
        <path id="Path_1173777" data-name="Path 1173777" d="M112,224h9.088v3.029H112Z" transform="translate(-77.824 -168.618)"/>
        <path id="Path_1173778" data-name="Path 1173778" d="M112,256h12.118v3.029H112Z" transform="translate(-77.824 -194.559)"/>
        <path id="Path_1173779" data-name="Path 1173779" d="M192,256h12.118v3.029H192Z" transform="translate(-142.677 -194.559)"/>
        <path id="Path_1173780" data-name="Path 1173780" d="M272,256h18.176v3.029H272Z" transform="translate(-207.53 -194.559)"/>
        <path id="Path_1173781" data-name="Path 1173781" d="M112,384h12.118v3.029H112Z" transform="translate(-77.824 -298.324)"/>
        <path id="Path_1173782" data-name="Path 1173782" d="M192,384h18.176v3.029H192Z" transform="translate(-142.677 -298.324)"/>
        <path id="Path_1173783" data-name="Path 1173783" d="M112,288h6.059v3.029H112Z" transform="translate(-77.824 -220.5)"/>
        <path id="Path_1173784" data-name="Path 1173784" d="M160,288h15.147v3.029H160Z" transform="translate(-116.735 -220.5)"/>
        <path id="Path_1173785" data-name="Path 1173785" d="M256,288h18.176v3.029H256Z" transform="translate(-194.559 -220.5)"/>
        <path id="Path_1173786" data-name="Path 1173786" d="M112,352h6.059v3.029H112Z" transform="translate(-77.824 -272.383)"/>
        <path id="Path_1173787" data-name="Path 1173787" d="M160,352h15.147v3.029H160Z" transform="translate(-116.735 -272.383)"/>
        <path id="Path_1173788" data-name="Path 1173788" d="M256,352h13.632v3.029H256Z" transform="translate(-194.559 -272.383)"/>
        <path id="Path_1173789" data-name="Path 1173789" d="M112,320h25.75v3.029H112Z" transform="translate(-77.824 -246.442)"/>
      </g>
    </g>
  </g>
</svg>
