<svg xmlns="http://www.w3.org/2000/svg" xmlns:xlink="http://www.w3.org/1999/xlink" width="93.934" height="93.934" viewBox="0 0 93.934 93.934">
  <defs>
    <filter id="Path_978624" x="0" y="0" width="93.934" height="93.934" filterUnits="userSpaceOnUse">
      <feOffset dy="3" input="SourceAlpha"/>
      <feGaussianBlur stdDeviation="3" result="blur"/>
      <feFlood flood-opacity="0.161"/>
      <feComposite operator="in" in2="blur"/>
      <feComposite in="SourceGraphic"/>
    </filter>
  </defs>
  <g id="Group_1222236" data-name="Group 1222236" transform="translate(-610.78 -3265.257)">
    <g id="Group_1222148" data-name="Group 1222148" transform="translate(0 60.257)">
      <g id="Group_1220898" data-name="Group 1220898" transform="translate(4.239 -2443.198)">
        <g id="Group_1219947" data-name="Group 1219947" transform="translate(615.541 5654.198)">
          <g id="Group_1208655" data-name="Group 1208655">
            <g id="Group_1208068" data-name="Group 1208068">
              <g id="Group_1144123" data-name="Group 1144123">
                <g transform="matrix(1, 0, 0, 1, -9, -6)" filter="url(#Path_978624)">
                  <g id="Path_978624-2" data-name="Path 978624" transform="translate(9 6)" fill="#f1ede8">
                    <path d="M 37.966796875 74.43359375 C 33.04315185546875 74.43359375 28.26757431030273 73.46962738037109 23.77274131774902 71.56847381591797 C 19.43047523498535 69.73184967041016 15.53040790557861 67.10224914550781 12.18087482452393 63.75271987915039 C 8.831341743469238 60.4031867980957 6.201741218566895 56.50312042236328 4.365118980407715 52.16086196899414 C 2.463963508605957 47.66601943969727 1.499996900558472 42.89044189453125 1.499996900558472 37.966796875 C 1.499996900558472 33.04315185546875 2.463963508605957 28.26757431030273 4.365118980407715 23.77274131774902 C 6.201741218566895 19.43047523498535 8.831341743469238 15.53040790557861 12.18087482452393 12.18087482452393 C 15.53040790557861 8.831341743469238 19.43047523498535 6.201741218566895 23.77274131774902 4.365118980407715 C 28.26757431030273 2.463963508605957 33.04315185546875 1.499996900558472 37.966796875 1.499996900558472 C 42.89044189453125 1.499996900558472 47.66601943969727 2.463963508605957 52.16086196899414 4.365118980407715 C 56.50312042236328 6.201741218566895 60.4031867980957 8.831341743469238 63.75271987915039 12.18087482452393 C 67.10224914550781 15.53040790557861 69.73184967041016 19.43047523498535 71.56847381591797 23.77274131774902 C 73.46962738037109 28.26757431030273 74.43359375 33.04315185546875 74.43359375 37.966796875 C 74.43359375 42.89044189453125 73.46962738037109 47.66601943969727 71.56847381591797 52.16086196899414 C 69.73184967041016 56.50313186645508 67.10224914550781 60.4031867980957 63.75271987915039 63.75271987915039 C 60.4031867980957 67.10224914550781 56.50313186645508 69.73184967041016 52.16086196899414 71.56847381591797 C 47.66601943969727 73.46962738037109 42.89044189453125 74.43359375 37.966796875 74.43359375 Z" stroke="none"/>
                    <path d="M 37.966796875 3 C 33.2449836730957 3 28.66600799560547 3.924095153808594 24.35705947875977 5.746635437011719 C 20.19359588623047 7.507621765136719 16.45379638671875 10.02927398681641 13.24153518676758 13.24153518676758 C 10.02927398681641 16.45379638671875 7.507621765136719 20.19359588623047 5.746635437011719 24.35705947875977 C 3.924095153808594 28.66600799560547 3 33.2449836730957 3 37.966796875 C 3 42.6886100769043 3.924095153808594 47.26758575439453 5.746635437011719 51.57653427124023 C 7.507621765136719 55.73999786376953 10.02927398681641 59.47979736328125 13.24153518676758 62.69205856323242 C 16.45379638671875 65.90431976318359 20.19359588623047 68.42597198486328 24.35705947875977 70.18695831298828 C 28.66600799560547 72.00949859619141 33.2449836730957 72.93359375 37.966796875 72.93359375 C 42.6886100769043 72.93359375 47.26758575439453 72.00949859619141 51.57653427124023 70.18695831298828 C 55.73999786376953 68.42597198486328 59.47979736328125 65.90431976318359 62.69205856323242 62.69205856323242 C 65.90431976318359 59.47979736328125 68.42597198486328 55.73999786376953 70.18695831298828 51.57653427124023 C 72.00949859619141 47.26758575439453 72.93359375 42.6886100769043 72.93359375 37.966796875 C 72.93359375 33.2449836730957 72.00949859619141 28.66600799560547 70.18695831298828 24.35705947875977 C 68.42597198486328 20.19359588623047 65.90431976318359 16.45379638671875 62.69205856323242 13.24153518676758 C 59.47979736328125 10.02927398681641 55.73999786376953 7.507621765136719 51.57653427124023 5.746635437011719 C 47.26758575439453 3.924095153808594 42.6886100769043 3 37.966796875 3 M 37.966796875 0 C 58.93528366088867 0 75.93359375 16.99831008911133 75.93359375 37.966796875 C 75.93359375 58.93528366088867 58.93528366088867 75.93359375 37.966796875 75.93359375 C 16.99831008911133 75.93359375 0 58.93528366088867 0 37.966796875 C 0 16.99831008911133 16.99831008911133 0 37.966796875 0 Z" stroke="none" fill="#665b4e"/>
                  </g>
                </g>
              </g>
            </g>
          </g>
        </g>
      </g>
      <g id="justicia_6_" data-name="justicia (6)" transform="translate(625.219 3220.548)">
        <g id="Group_1222145" data-name="Group 1222145" transform="translate(1.286 1.49)">
          <path id="Path_1173929" data-name="Path 1173929" d="M90.87,82.947H130.9v3.811H90.87Z" transform="translate(-80.613 -73.672)" fill="#ecbc7c"/>
          <path id="Path_1173930" data-name="Path 1173930" d="M32.259,223.791a8.13,8.13,0,1,1-16.259,0Z" transform="translate(-15.253 -196.625)" fill="#c2d3dd"/>
          <path id="Path_1173931" data-name="Path 1173931" d="M384.259,223.791a8.13,8.13,0,1,1-16.259,0Z" transform="translate(-322.54 -196.625)" fill="#c2d3dd"/>
          <g id="Group_1222142" data-name="Group 1222142" transform="translate(29.328 20.712)">
            <path id="Path_1173932" data-name="Path 1173932" d="M241,172.982h3.811v22.174H241Z" transform="translate(-241 -172.982)" fill="#ecbc7c"/>
          </g>
          <circle id="Ellipse_14578" data-name="Ellipse 14578" cx="7.492" cy="7.492" r="7.492" transform="translate(23.741 39.867)" fill="#c2d3dd"/>
          <path id="Path_1173933" data-name="Path 1173933" d="M96.476,84.852a6.987,6.987,0,0,1-.264,1.905H90.87V82.947h5.341A6.987,6.987,0,0,1,96.476,84.852Z" transform="translate(-80.613 -73.672)" fill="#c59654"/>
          <circle id="Ellipse_14579" data-name="Ellipse 14579" cx="3.811" cy="3.811" r="3.811" transform="translate(5.066 7.37)" fill="#c2d3dd"/>
          <circle id="Ellipse_14580" data-name="Ellipse 14580" cx="3.811" cy="3.811" r="3.811" transform="translate(49.779 7.37)" fill="#c2d3dd"/>
          <g id="Group_1222143" data-name="Group 1222143" transform="translate(0.747 7.37)">
            <path id="Path_1173934" data-name="Path 1173934" d="M19.176,223.791H16a8.132,8.132,0,0,0,9.718,7.974A8.132,8.132,0,0,1,19.176,223.791Z" transform="translate(-16 -203.995)" fill="#83a5b9"/>
            <path id="Path_1173935" data-name="Path 1173935" d="M371.176,223.791H368a8.132,8.132,0,0,0,9.718,7.974A8.132,8.132,0,0,1,371.176,223.791Z" transform="translate(-323.287 -203.995)" fill="#83a5b9"/>
            <path id="Path_1173936" data-name="Path 1173936" d="M200.2,331.267a7.494,7.494,0,0,1,5.9-7.322,7.492,7.492,0,1,0,0,14.643A7.493,7.493,0,0,1,200.2,331.267Z" transform="translate(-174.026 -291.278)" fill="#83a5b9"/>
            <path id="Path_1173937" data-name="Path 1173937" d="M53.176,71.76A3.81,3.81,0,0,1,55.4,68.3a3.811,3.811,0,1,0,0,6.928,3.811,3.811,0,0,1-2.223-3.464Z" transform="translate(-45.681 -67.949)" fill="#83a5b9"/>
            <path id="Path_1173938" data-name="Path 1173938" d="M405.176,71.76A3.811,3.811,0,0,1,407.4,68.3a3.811,3.811,0,1,0,0,6.928,3.811,3.811,0,0,1-2.223-3.464Z" transform="translate(-352.968 -67.949)" fill="#83a5b9"/>
          </g>
          <g id="Group_1222144" data-name="Group 1222144" transform="translate(0 42.496)">
            <path id="Path_1173939" data-name="Path 1173939" d="M18.633,346.513c-3.07-2.3-6.4-3.323-8.513.608,0,0,16.953,16.372,19.115,17.142,6.3,2.238,31.736-3.3,31.736-3.3h12.9v-12.4l-12.125.216c-6.193-6.194-14.111-.9-17.954.259-2.558.772-8.136.931-11.03.931-2.993,0-4.578,1.969-4.64,3.693-1.026-.781-7.271-5.493-9.49-7.158Z" transform="translate(-10.12 -344.477)" fill="#ffdba9"/>
          </g>
          <path id="Path_1173940" data-name="Path 1173940" d="M27.8,353.427c-1.634-1.238-7.118-5.375-9.168-6.913-3.07-2.3-6.4-3.323-8.513.608,0,0,16.953,16.372,19.115,17.142s6.535.622,11.375.1c-.113-.033-9.725-4.517-12.809-10.941Z" transform="translate(-10.12 -301.981)" fill="#ffb87e"/>
          <path id="Path_1173941" data-name="Path 1173941" d="M266.6,82.947v3.811H254.049l-.019-3.811Z" transform="translate(-223.047 -73.672)" fill="#c59654"/>
          <path id="Path_1173942" data-name="Path 1173942" d="M190.709,9.931s-5.192,4.276-9.162,4.276v10.56c0,5.136,9.3,9.3,9.3,9.3s9.3-4.163,9.3-9.3V14.207C196.028,14.207,190.709,9.931,190.709,9.931Z" transform="translate(-159.771 -9.931)" fill="#d6fd9c"/>
          <path id="Path_1173943" data-name="Path 1173943" d="M184.723,48.358V38.119a8.986,8.986,0,0,1-3.176.7v10.56c0,5.136,9.3,9.3,9.3,9.3S184.723,53.494,184.723,48.358Z" transform="translate(-159.771 -34.538)" fill="#aaf800"/>
        </g>
        <g id="Group_1222146" data-name="Group 1222146" transform="translate(0 0.262)">
          <path id="Path_1173944" data-name="Path 1173944" d="M366.428,466.83c-.025.005-2.564.556-6.172,1.229l.349,1.873c3.233-.6,5.618-1.109,6.127-1.219h12.8v-1.905h-13Z" transform="translate(-314.494 -407.544)"/>
          <path id="Path_1173945" data-name="Path 1173945" d="M20.722,62.877c-1.313-.505-10.262-8.729-18.229-16.4,1.715-2.479,4-1.672,6.735.313,2.025,1.519,7.423,5.592,9.12,6.877.188,2.9,2.726,4.412,5.583,4.383H35.315V56.139H23.93c-.866,0-3.692-.206-3.692-2.849,0-1.183,1.145-2.849,3.692-2.849,1.9,0,8.314-.07,11.3-.972,5.269-1.855,11.8-5.99,17.291-.212l12.529-.222-.034-1.905-11.729.208c-3.569-3.483-8.56-3.52-13.031-1.863a8.522,8.522,0,0,0-4.883-4.563v-15.8c3.247-1.939,7.652-5.254,7.236-9.578h8.455a4.805,4.805,0,0,0,.682.731l-4.19,11.27H44.713v1.905h1.115c1.26,11.009,16.837,11,18.093,0h1.115V27.53H62.192L58,16.26a4.761,4.761,0,1,0-6.935-6.447H42.613v-5C38.178,5.2,33.023.9,32.216.262c-1.787,1.48-5.695,4.415-9.154,4.551h-.953v5H13.97A4.761,4.761,0,1,0,7.036,16.26l-4.19,11.27H0v1.905H1.115c1.26,11.009,16.837,11,18.093,0h1.115V27.531H17.478l-4.19-11.27a4.806,4.806,0,0,0,.682-.731h8.138c-.438,4.463,4.316,7.883,7.552,9.763v6.567h1.905V26.3c.392.189.483.224.795.364.449-.2.452-.194,1.111-.52V40.46a8.255,8.255,0,0,0-1.905,0V33.765H29.661V40.9a8.459,8.459,0,0,0-5.579,7.632,5.555,5.555,0,0,0-5.364,3.018c-2.194-1.659-6.57-4.959-8.348-6.293C6.108,42.027,2.295,42.145.105,46.816l.519.5c.042.041,4.3,4.147,8.76,8.3,9.161,8.512,10.237,8.9,10.7,9.06a15.83,15.83,0,0,0,4.925.579c5.3,0,12.922-1.127,19.224-2.256L43.9,61.118c-12.056,2.16-20.287,2.784-23.173,1.759ZM10.162,9.813A2.858,2.858,0,1,1,7.3,12.671,2.861,2.861,0,0,1,10.162,9.813Zm0,26.02a7.187,7.187,0,0,1-7.134-6.4H17.3A7.186,7.186,0,0,1,10.162,35.833Zm5.283-8.3H4.879L8.716,17.209a4.788,4.788,0,0,0,2.893,0ZM14.83,13.624a4.8,4.8,0,0,0,0-1.905h7.279v1.905Zm40.046,22.21a7.187,7.187,0,0,1-7.134-6.4H62.009a7.186,7.186,0,0,1-7.134,6.4Zm5.283-8.3H49.592l3.837-10.321a4.787,4.787,0,0,0,2.893,0ZM54.876,9.813a2.858,2.858,0,1,1-2.858,2.858A2.861,2.861,0,0,1,54.876,9.813Zm-4.668,1.905a4.8,4.8,0,0,0,0,1.905h-7.6V11.718ZM32.361,24.575c-2.651-1.271-8.347-4.733-8.347-8.249V6.653c3.252-.436,6.821-2.908,8.216-3.959,1.426,1.049,5.108,3.538,8.477,3.963v9.669c0,3.516-5.7,6.978-8.347,8.249Zm.158,17.735a6.586,6.586,0,0,1,5.954,3.836c-1.206.477-2.757,1.186-3.788,1.5a41.438,41.438,0,0,1-8.7.867A6.548,6.548,0,0,1,32.519,42.31Z" transform="translate(0 -0.262)"/>
          <path id="Path_1173946" data-name="Path 1173946" d="M211.955,73.991l-2.843-2.241-1.179,1.5,4.235,3.337,7.591-8.308-1.407-1.285Z" transform="translate(-181.519 -58.515)"/>
        </g>
        <g id="Group_1222147" data-name="Group 1222147" transform="translate(53.605 53.194)">
          <path id="Path_1173947" data-name="Path 1173947" d="M422,416.961h1.905v1.905H422Z" transform="translate(-422 -416.961)" fill="#fff"/>
          <path id="Path_1173948" data-name="Path 1173948" d="M452,416.961h1.905v1.905H452Z" transform="translate(-448.189 -416.961)" fill="#fff"/>
        </g>
      </g>
    </g>
  </g>
</svg>
